<svg xmlns="http://www.w3.org/2000/svg" fill="none" viewBox="0 0 87 12" height="12" width="87">
<path fill="white" d="M66.0669 9.91791H62.6161C62.5254 9.91791 62.4521 9.99175 62.4521 10.0819V11.7515C62.4521 11.8417 62.5254 11.9155 62.6161 11.9155H66.0669C66.1119 11.9155 66.1488 11.8786 66.1488 11.8335V11.647C66.1488 11.602 66.1119 11.5651 66.0669 11.5651H63.0285C62.9603 11.5651 62.9046 11.5094 62.9046 11.4405V11.1576C62.9046 11.112 62.9415 11.0744 62.9872 11.0744H65.2752C65.3203 11.0744 65.3572 11.0369 65.3572 10.9918V10.8066C65.3572 10.7621 65.3203 10.724 65.2752 10.724H62.9872C62.9415 10.724 62.904 10.687 62.904 10.6413V10.3898C62.904 10.3209 62.9597 10.2659 63.0279 10.2659H66.0662C66.1113 10.2659 66.1482 10.2289 66.1482 10.1839V9.99801C66.1482 9.95233 66.1113 9.91666 66.0662 9.91666"></path>
<path fill="white" d="M75.1105 9.88536H71.5966C71.5334 9.88536 71.4814 9.93605 71.4814 9.99988V10.1858C71.4814 10.2496 71.5334 10.3003 71.5966 10.3003H73.0385C73.0885 10.3003 73.1298 10.341 73.1298 10.391V11.8348C73.1298 11.898 73.1812 11.9493 73.2444 11.9493H73.4628C73.5141 11.9493 73.5585 11.9149 73.5729 11.8673H73.5773V10.391C73.5773 10.341 73.6186 10.3003 73.6687 10.3003H75.1112C75.175 10.3003 75.2257 10.2496 75.2257 10.1858V9.99988C75.2257 9.93605 75.175 9.88536 75.1112 9.88536"></path>
<path fill="white" d="M61.5926 9.88536H61.4543C61.341 9.88536 61.3272 9.89475 61.2528 9.9711L60.0794 11.1633H60.0781C59.8747 11.3898 59.759 11.4987 59.6526 11.5006C59.5362 11.5043 59.4079 11.3811 59.1907 11.1645L58.0173 9.97172C57.9428 9.896 57.9291 9.88661 57.8164 9.88661H57.6775C57.5836 9.88661 57.5292 9.90726 57.5117 9.95107C57.4916 9.99926 57.5192 10.0587 57.5986 10.1382L58.9742 11.5356C58.9892 11.5507 59.0042 11.5663 59.0186 11.5813C59.15 11.7146 59.2546 11.8198 59.3478 11.8892C59.4492 11.9649 59.538 12 59.6357 12C59.7339 12 59.8228 11.9649 59.9242 11.8892C60.0174 11.8198 60.1219 11.7146 60.2533 11.5813C60.2684 11.5663 60.2828 11.5513 60.2984 11.5356L60.2972 11.5344H60.2984L61.6733 10.1376C61.7534 10.0568 61.781 9.99676 61.7609 9.94982C61.7434 9.90601 61.6883 9.88474 61.5945 9.88474"></path>
<path fill="white" d="M70.5926 9.88536H70.3748C70.3116 9.88536 70.2596 9.93605 70.2596 9.99988V11.443C70.2596 11.4837 70.2496 11.4993 70.2415 11.5062C70.2127 11.535 70.1276 11.535 69.9987 11.535C69.9761 11.535 69.9524 11.535 69.9261 11.535C69.906 11.535 69.8879 11.5288 69.8729 11.5169L67.9648 9.93543V9.93417H67.9623C67.9222 9.90664 67.8872 9.88599 67.8352 9.88599H67.1424C67.0336 9.88599 66.9453 9.97485 66.9453 10.0837V11.8354C66.9453 11.8986 66.9966 11.9499 67.0598 11.9499H67.2783C67.3415 11.9499 67.3928 11.8986 67.3934 11.8354L67.3921 10.3904C67.3921 10.3541 67.3972 10.3341 67.4078 10.3234C67.4372 10.294 67.5386 10.2971 67.7226 10.3028H67.7251C67.7507 10.3028 67.7701 10.3097 67.7927 10.3259L69.697 11.9067C69.7321 11.9349 69.7759 11.9499 69.8216 11.9499H70.5087C70.617 11.9499 70.7058 11.8617 70.7058 11.7534V10.0005C70.7058 9.93668 70.6545 9.88599 70.5907 9.88599"></path>
<path fill="white" d="M79.6417 9.88536H79.4232C79.3713 9.88536 79.3269 9.91978 79.3125 9.96734H79.3081V10.8904C79.305 11.0738 79.2993 11.1939 79.2912 11.2478C79.2843 11.2966 79.2655 11.3373 79.2361 11.3704C79.1717 11.4436 79.0665 11.4893 78.9238 11.5081C78.8362 11.52 78.7524 11.5262 78.6766 11.5294C78.6034 11.5313 78.39 11.5331 77.9832 11.5344C77.6403 11.5331 77.1716 11.5313 77.0933 11.5294C77.017 11.5262 76.9338 11.52 76.8461 11.5081C76.7035 11.4906 76.5983 11.4436 76.5339 11.3704C76.5044 11.3366 76.4857 11.2953 76.4782 11.2478C76.47 11.1939 76.465 11.0732 76.4613 10.8892V9.99988V9.96734H76.4569C76.4431 9.91978 76.3987 9.88536 76.3467 9.88536H76.1277C76.0651 9.88536 76.0132 9.93605 76.0132 9.99988V10.0324H76.0144V10.8372L76.0157 10.9768C76.0201 11.2371 76.0288 11.408 76.0401 11.4862C76.052 11.5682 76.0839 11.6383 76.134 11.6958C76.2347 11.8122 76.3949 11.8848 76.609 11.9124C76.731 11.9286 76.8474 11.9387 76.9544 11.9418C77.0295 11.9437 77.3149 11.9455 77.6685 11.9474V11.9487C77.7417 11.9487 77.8143 11.9487 77.8844 11.9487C77.9545 11.9487 78.0283 11.9487 78.1015 11.9487V11.9474C78.4545 11.9455 78.7399 11.9437 78.8156 11.9418C78.9226 11.938 79.039 11.9286 79.161 11.9124C79.3757 11.8848 79.5346 11.8122 79.636 11.6958C79.6855 11.6383 79.7174 11.5682 79.7299 11.4862C79.7412 11.408 79.7499 11.2371 79.7543 10.9768L79.7556 10.8372L79.7543 10.0819V10.0324H79.7556V9.99988C79.7556 9.93605 79.7042 9.88536 79.641 9.88536"></path>
<path fill="white" d="M84.001 9.99488C83.7801 9.90351 83.4234 9.88536 82.8821 9.88536H80.7386C80.6297 9.88536 80.5415 9.97423 80.5415 10.0825V11.8341C80.5415 11.8974 80.5928 11.9487 80.6567 11.9487H80.9076C80.9708 11.9487 81.0228 11.8974 81.0228 11.8341H81.0215V11.1082H82.8026C83.0341 11.1082 83.0491 11.1232 83.1868 11.2609L83.7795 11.8629C83.8546 11.938 83.8683 11.948 83.9804 11.948H84.118C84.2119 11.948 84.267 11.9268 84.2851 11.883C84.3052 11.8348 84.277 11.7753 84.1969 11.6946L83.6474 11.1526C83.6092 11.1145 83.6074 11.0988 83.6074 11.0963C83.6086 11.0944 83.6205 11.0832 83.6787 11.0769C83.8959 11.0506 84.0448 11.0031 84.1443 10.928C84.2513 10.846 84.3077 10.7277 84.317 10.5631V10.5612C84.317 10.406 84.2945 10.2928 84.247 10.2033C84.1963 10.11 84.1162 10.0412 84.0016 9.99425M81.0215 10.3848C81.0215 10.3604 81.0215 10.3184 81.0303 10.3097C81.0403 10.3003 81.0872 10.3003 81.1091 10.3003L83.031 10.3015C83.3614 10.3015 83.5886 10.304 83.7113 10.3353C83.822 10.3629 83.8452 10.411 83.8514 10.5024C83.8514 10.6069 83.8164 10.6482 83.71 10.672C83.5867 10.7008 83.3777 10.7008 83.031 10.7008H81.0221V10.3854L81.0215 10.3848Z"></path>
<path fill="white" d="M85.8249 9.9567H85.8211C85.8042 9.91477 85.7629 9.88536 85.7147 9.88536H85.4632C85.4012 9.88536 85.3499 9.9348 85.3486 9.99676V11.836C85.3505 11.8986 85.4012 11.9487 85.4644 11.9487H85.7154C85.7673 11.9487 85.8117 11.9143 85.8255 11.8673H85.8318V9.99801L85.8255 9.95733L85.8249 9.9567Z"></path>
<path fill="white" d="M52.9357 0.0600891H47.6144C46.0417 0.0600891 44.7676 1.33487 44.7676 2.90692V5.70181C44.7676 7.27448 46.0424 8.54864 47.6144 8.54864H52.9357C54.5084 8.54864 55.7825 7.27386 55.7825 5.70181V2.90692C55.7825 1.33425 54.5078 0.0600891 52.9357 0.0600891ZM50.8417 4.08909C48.4273 4.33753 46.2933 5.07287 44.7907 6.06228C45.8052 4.56971 47.8773 3.42197 50.3592 3.16663C52.4801 2.94822 54.4402 3.42948 55.775 4.35631C54.3344 4.01524 52.6366 3.90447 50.8411 4.08909H50.8417Z"></path>
<path fill="white" d="M43.2414 2.93445V2.11525C43.2414 0.947484 42.2939 0 41.1261 0H14.4101C13.2405 0 12.2936 0.947484 12.2936 2.11588V2.93507C12.2936 4.10409 13.2411 5.05095 14.4101 5.05095H18.6043C19.0712 5.05095 19.4504 5.42957 19.4504 5.89705V6.26879C19.4504 6.73752 19.0718 7.11551 18.6043 7.11551H10.1033C10.0438 7.11551 9.98873 7.08235 9.95994 7.03103L6.14497 0.0838592C6.11619 0.0319166 6.06174 0 6.00229 0H4.53162C4.47092 0 4.41522 0.0331682 4.38769 0.0869883L0.0188726 8.37027C-0.0380766 8.47917 0.0407761 8.60871 0.16281 8.60871H1.48265C1.54336 8.60871 1.59906 8.57491 1.62722 8.52235L5.13428 1.86993C5.19499 1.75478 5.35895 1.75416 5.42153 1.86806L9.07629 8.5236C9.10508 8.57554 9.15952 8.60808 9.21898 8.60808H18.8271C19.9955 8.60808 20.9424 7.66123 20.9424 6.4922V5.67301C20.9424 4.50462 19.9949 3.55713 18.8271 3.55713H14.6329C14.1648 3.55713 13.7868 3.17851 13.7868 2.71103V2.33804C13.7868 1.87119 14.1654 1.49194 14.6329 1.49194H26.6561C26.7462 1.49194 26.8194 1.56454 26.8194 1.65465V8.44412C26.8194 8.53486 26.892 8.60746 26.9827 8.60746H28.1999C28.2901 8.60746 28.3639 8.53486 28.3639 8.44412V1.65591C28.3639 1.56579 28.4365 1.49319 28.5266 1.49319H40.9034C41.3708 1.49319 41.7501 1.87181 41.7501 2.3393V2.71228C41.7501 3.17914 41.3708 3.55838 40.9034 3.55838H33.8442C33.754 3.55838 33.6808 3.63223 33.6808 3.72172V4.88887C33.6808 4.97898 33.754 5.0522 33.8442 5.0522H38.611C38.6648 5.0522 38.7136 5.07786 38.7443 5.12104L41.1324 8.52986C41.1631 8.57304 41.2131 8.59932 41.2663 8.59932H42.9297C43.0612 8.59932 43.1388 8.451 43.063 8.34336L40.9359 5.30816C40.8602 5.1999 40.9378 5.0522 41.0698 5.0522H41.1268C42.2952 5.0522 43.242 4.10472 43.242 2.93632"></path>
<path fill="white" d="M84.6644 2.71291C84.6644 3.17413 84.2952 3.54837 83.8358 3.55776H79.2023C79.1172 3.55776 79.0484 3.48892 79.0484 3.40381V1.64714C79.0484 1.56203 79.1172 1.49257 79.2023 1.49257H83.8177C84.2858 1.49257 84.6638 1.87181 84.6638 2.33867V2.71228L84.6644 2.71291ZM85.5356 4.22863C85.498 4.22237 85.4892 4.17669 85.5212 4.15729C85.8998 3.93387 86.2659 3.4739 86.2659 2.92068V2.11588C86.2659 0.946858 85.319 0 84.1513 0H77.7104C77.6253 0 77.5558 0.0688396 77.5558 0.15395V4.89637C77.5558 4.98211 77.6246 5.05095 77.7104 5.05095H84.2401C84.7076 5.05095 85.0862 5.42894 85.0862 5.89705V6.26941C85.0862 6.7369 84.7076 7.11551 84.2401 7.11551H75.7334C75.6771 7.11551 75.6252 7.08485 75.5982 7.03541L71.7783 0.0801043C71.7514 0.0306649 71.6994 0 71.6431 0H70.1612C70.1042 0 70.0516 0.0312907 70.0247 0.0813559L66.3587 7.03291C66.3324 7.08297 66.2792 7.11551 66.2223 7.11551H59.0661C58.9804 7.11551 58.9115 7.04667 58.9115 6.96156V0.15395C58.9115 0.0688396 58.8427 0 58.7576 0H57.5729C57.4878 0 57.4189 0.0688396 57.4189 0.15395V8.45476C57.4189 8.53924 57.4878 8.60933 57.5729 8.60933H67.1228C67.1798 8.60933 67.2323 8.57804 67.2593 8.52673L70.777 1.85554C70.8339 1.74727 70.9891 1.74602 71.0479 1.85366L74.7146 8.5286C74.7409 8.57804 74.7928 8.60871 74.8498 8.60871H84.4629C85.6313 8.60871 86.5788 7.66122 86.5788 6.4922V5.56787C86.5788 5.10853 86.2872 4.37695 85.5356 4.22863Z"></path>
</svg>
