<svg xmlns="http://www.w3.org/2000/svg" fill="none" viewBox="0 0 50 44" height="44" width="50">
<g clip-path="url(#clip0_3898_15505)">
<path fill="white" d="M10.49 26.9903C9.82365 26.9183 9.16617 26.7929 8.5077 26.6715C7.08727 26.4228 5.68268 26.0908 4.30119 25.6774C3.26857 25.3614 2.25174 25.0001 1.31093 24.4552C0.993583 24.2788 0.700832 24.0614 0.440215 23.8086C0.384931 23.7523 0.330633 23.694 0.281273 23.6328C-0.0899186 23.1718 -0.0948542 22.7443 0.269427 22.2784C0.52264 21.9748 0.82701 21.7179 1.16877 21.5192C1.88746 21.069 2.66933 20.7541 3.467 20.4767C4.89056 19.9831 6.35262 19.6356 7.8285 19.3395C7.98942 19.3069 8.1839 19.3276 8.30335 19.223C8.4228 19.1183 8.40207 18.9327 8.43761 18.7817C9.10263 16.1719 10.3852 13.7602 12.1772 11.7498C13.8226 9.89599 15.861 8.4329 18.1439 7.46725C19.4844 6.89097 20.8946 6.4927 22.3385 6.2826C23.55 6.10862 24.7769 6.06856 25.9971 6.16314C28.1171 6.32044 30.1877 6.88031 32.0981 7.81277C34.3378 8.89266 36.3066 10.4614 37.8594 12.4033C39.0624 13.8996 39.9975 15.5926 40.6236 17.4075C40.6599 17.4842 40.6801 17.5675 40.6829 17.6523C40.4627 17.6415 40.2445 17.6345 40.0274 17.6187C38.8625 17.5378 37.6966 17.4835 36.5307 17.4351C34.7655 17.3614 32.9994 17.3101 31.2323 17.2811C30.7354 17.2873 30.2387 17.2639 29.7446 17.211C29.1009 17.1222 28.5501 16.8744 28.165 16.3314C28.0663 16.1972 27.9627 16.0688 27.8689 15.9365C27.3318 15.1971 26.5993 14.7775 25.7128 14.5989C25.1549 14.4902 24.5869 14.4422 24.0188 14.4557C23.7124 14.475 23.4087 14.5253 23.1125 14.6058C22.1269 14.8108 21.2127 15.2719 20.4618 15.9425C20.2083 16.1688 19.9941 16.4357 19.828 16.7322C19.4569 17.3976 19.4756 18.0581 19.8616 18.7067C20.1698 19.2059 20.5924 19.6245 21.0946 19.9278C22.6692 20.9249 24.3593 21.1609 26.1501 20.6613C26.7941 20.4819 27.3619 20.0971 27.7672 19.5655C27.9094 19.3859 28.0495 19.2052 28.1858 19.0226C28.5807 18.4944 29.1216 18.2427 29.7544 18.1528C30.3426 18.0834 30.9363 18.0732 31.5265 18.1222C32.361 18.1696 33.1949 18.2295 34.0281 18.3019C35.0153 18.3868 36.0025 18.4891 36.9897 18.6089C38.0302 18.7353 39.0688 18.8774 40.1014 19.0541C42.2861 19.4263 44.4511 19.8814 46.5331 20.6613C47.1866 20.8952 47.8134 21.198 48.4029 21.5646C48.617 21.6981 48.8174 21.8526 49.0011 22.0257C49.1051 22.1226 49.1987 22.2302 49.2805 22.3465C49.5589 22.7503 49.5549 23.1303 49.2706 23.5312C49.0605 23.8083 48.8032 24.0462 48.5105 24.234C48.0043 24.5704 47.4635 24.8514 46.8974 25.0722C45.5775 25.6152 44.2082 25.9824 42.8241 26.2953C42.3483 26.403 41.8685 26.4997 41.3887 26.5915C41.3159 26.5951 41.2466 26.6238 41.1926 26.6727C41.1386 26.7217 41.1032 26.7879 41.0926 26.86C39.9079 31.5552 37.2316 35.1398 33.0399 37.5723C31.2809 38.5861 29.3481 39.2624 27.3407 39.5664C25.9294 39.7957 24.4938 39.8356 23.072 39.6849C18.8793 39.2229 15.3145 37.4726 12.419 34.3984C10.8394 32.7117 9.63128 30.7123 8.87297 28.5294C8.8249 28.4362 8.80242 28.332 8.80781 28.2273L10.9678 28.3606C11.1812 28.9387 11.4383 29.4998 11.7369 30.0389C12.3612 31.1888 13.135 32.251 14.0381 33.1979C14.735 33.9287 15.5085 34.5823 16.3452 35.1477C17.7498 36.1136 19.3104 36.8302 20.9584 37.2662C22.0223 37.5509 23.1154 37.7126 24.2162 37.748C24.7359 37.7659 25.2562 37.7567 25.775 37.7203C26.3557 37.6816 26.9336 37.6084 27.5056 37.5012C28.8988 37.2317 30.2469 36.7664 31.5097 36.1191C32.9704 35.3656 34.2983 34.3785 35.4408 33.1969C35.5573 33.0765 35.6629 32.9442 35.7764 32.8159C35.7651 32.8068 35.751 32.8019 35.7365 32.8019C35.7219 32.8019 35.7078 32.8068 35.6965 32.8159C34.9568 33.2689 34.1761 33.6514 33.3647 33.9581C32.1051 34.4394 30.7795 34.7257 29.4336 34.8071C28.2848 34.8794 27.1316 34.8064 26.0011 34.5899C24.2246 34.2501 22.5323 33.5641 21.0206 32.571C20.7511 32.3934 20.4885 32.2068 20.2219 32.0241C20.2061 31.9797 20.1874 31.9363 20.1746 31.8909C20.0048 31.264 19.5822 30.8967 18.9731 30.7171C18.8833 30.6904 18.7836 30.7042 18.6987 30.6549C18.6825 30.6283 18.664 30.6032 18.6434 30.5798C18.1827 30.1096 17.7617 29.6021 17.3847 29.0625C17.2771 28.9134 17.1369 28.7782 17.1014 28.5837C17.8345 28.5741 18.5676 28.6071 19.2969 28.6824C19.8617 28.7356 20.4199 28.8444 20.9633 29.0072C21.4174 29.1466 21.8366 29.3808 22.1934 29.6943C22.4787 29.948 22.7857 30.1711 23.1619 30.261C23.4385 30.3244 23.7212 30.3575 24.0049 30.3597C24.6762 30.3706 25.3456 30.334 26.0139 30.2876C26.9192 30.2244 27.8225 30.1474 28.7258 30.0744C28.9232 30.0596 29.1207 30.0398 29.3181 30.0191C29.5155 29.9984 29.5155 29.9915 29.5155 29.8602C29.5225 29.6953 29.402 29.7417 29.3181 29.7378C27.9077 29.6765 26.4963 29.6469 25.084 29.6489C24.7641 29.6489 24.8065 29.6973 24.8036 29.3794C24.8006 29.0615 24.8036 29.0536 25.1234 29.0497C26.0623 29.0398 26.9991 29.0279 27.938 28.9845C28.4109 28.9638 28.8827 28.9342 29.3556 28.9055C29.5086 28.8957 29.5333 28.8562 29.5116 28.7209C29.5106 28.6974 29.5004 28.6751 29.4833 28.6589C29.4661 28.6427 29.4434 28.6338 29.4198 28.634C29.3645 28.6281 29.3092 28.6212 29.2549 28.6183C28.0574 28.558 26.8599 28.5008 25.6605 28.4988C25.4166 28.4988 25.1669 28.4889 24.928 28.4879C24.8401 28.4879 24.8065 28.4613 24.8006 28.3675C24.769 27.8956 24.7661 27.8986 25.2399 27.8946C26.6122 27.8848 27.9834 27.8354 29.3536 27.7564C29.4524 27.7505 29.5185 27.7377 29.5155 27.6133C29.5155 27.5146 29.481 27.4761 29.3803 27.4721C28.782 27.4445 28.1838 27.403 27.5846 27.3842C26.7178 27.3566 25.851 27.322 24.9823 27.3329C24.8065 27.3329 24.8056 27.3329 24.8036 27.1532C24.8036 27.0743 24.8036 26.9953 24.8036 26.9163C24.8036 26.7426 24.8036 26.7406 24.9902 26.7386C26.2735 26.7248 27.5569 26.7169 28.8462 26.6675C29.0121 26.6616 29.1769 26.6567 29.3398 26.6488C29.4257 26.6488 29.5106 26.6488 29.5136 26.5175C29.5165 26.3862 29.4543 26.3793 29.3566 26.3704C28.9094 26.3309 28.4622 26.2805 28.014 26.245C27.2598 26.1838 26.5055 26.1186 25.7503 26.0791C25.0731 26.0426 24.3969 25.9893 23.7177 26.0436C23.1865 26.0861 22.7166 26.2628 22.3444 26.6498C21.7393 27.2786 20.9851 27.5649 20.138 27.6695C19.0916 27.7999 18.0451 27.7683 16.9977 27.6873C16.8249 27.6745 16.6522 27.6577 16.4794 27.6429C16.464 27.5726 16.4359 27.5057 16.3965 27.4454C16.2168 27.095 16.0549 26.7356 15.9029 26.3723C15.3194 24.9925 14.9736 23.5239 14.8801 22.0286C14.8104 20.9449 14.8714 19.8567 15.0618 18.7876C15.2917 17.4905 15.7049 16.2327 16.2889 15.052C16.7339 14.1544 17.2755 13.308 17.904 12.5277C18.4899 11.7949 19.1517 11.1261 19.8784 10.5325C20.9495 9.65715 22.148 8.9504 23.4324 8.43669C23.6416 8.35377 23.8529 8.27578 24.0731 8.19186C24.0515 8.17785 24.0274 8.16835 24.0021 8.16394C23.9769 8.15952 23.9509 8.16029 23.926 8.16619C23.368 8.1943 22.8122 8.25561 22.2615 8.34982C20.8532 8.58634 19.4872 9.02804 18.207 9.66083C17.0293 10.2355 15.9353 10.9678 14.9552 11.8376C14.1134 12.5791 13.3577 13.413 12.7024 14.3234C11.7034 15.7169 10.9544 17.2736 10.489 18.9238C10.1601 20.0671 9.97672 21.2472 9.9431 22.4363C9.9123 23.2321 9.94532 24.029 10.0418 24.8195C10.1416 25.5524 10.2914 26.2778 10.49 26.9903ZM41.3729 25.5095C41.4865 25.4977 41.5704 25.4927 41.6543 25.4789C41.8952 25.4394 42.1357 25.3973 42.3759 25.3526C43.3622 25.1811 44.3361 24.9447 45.2912 24.6447C45.7768 24.502 46.2415 24.2959 46.6733 24.0317C46.808 23.9486 46.9292 23.8454 47.0326 23.7256C47.2577 23.4492 47.2567 23.1896 47.0267 22.9141C46.9487 22.8248 46.8602 22.7452 46.7631 22.6772C46.4973 22.4927 46.2098 22.3416 45.9072 22.227C45.0493 21.8786 44.1539 21.6624 43.2516 21.4708C42.6751 21.3484 42.0956 21.2379 41.4746 21.147C41.6304 22.5985 41.5962 24.064 41.3729 25.5066V25.5095ZM8.12071 20.3296C7.9055 20.3681 7.72583 20.3977 7.55208 20.4283C6.5086 20.6327 5.47104 20.8578 4.47198 21.2309C4.07588 21.3651 3.70192 21.5574 3.36236 21.8016C2.86875 22.1826 2.85888 22.5913 3.34261 22.9862C3.56679 23.1605 3.81353 23.3036 4.07611 23.4117C4.64863 23.6547 5.23994 23.8508 5.84421 23.9981C6.53525 24.1768 7.23716 24.3229 7.97757 24.4522C7.85962 23.0763 7.90768 21.6911 8.12071 20.3267V20.3296ZM17.6206 24.081C17.6357 23.8327 17.5661 23.5867 17.4232 23.3831C17.1399 22.9694 16.51 22.7828 16.1191 23.3386C15.7923 23.8036 15.9641 24.5411 16.4577 24.8254C16.6138 24.9208 16.7996 24.9551 16.9795 24.9218C17.1594 24.8884 17.3206 24.7897 17.4321 24.6447C17.5655 24.486 17.633 24.2821 17.6206 24.0751V24.081ZM23.5943 33.0311C23.6752 33.0311 23.7394 33.0311 23.8016 33.0202C23.8988 33.0079 23.9923 32.9753 24.0761 32.9244C24.1599 32.8736 24.2321 32.8057 24.2879 32.7252C24.3438 32.6447 24.3821 32.5533 24.4004 32.457C24.4186 32.3607 24.4164 32.2617 24.3939 32.1663C24.2883 31.6579 23.6949 31.3321 23.2359 31.4269C22.6643 31.5443 22.4461 32.1011 22.7709 32.5878C22.8598 32.725 22.9819 32.8374 23.1258 32.9149C23.2697 32.9924 23.4308 33.0323 23.5943 33.0311ZM27.5115 33.0587C27.473 33.0587 27.4335 33.0587 27.394 33.0656C27.3177 33.0729 27.2441 33.0982 27.1795 33.1396C27.1148 33.1809 27.061 33.237 27.0224 33.3033C26.9838 33.3696 26.9616 33.4442 26.9575 33.5208C26.9535 33.5974 26.9677 33.6739 26.9991 33.7439C27.1581 34.1239 27.7465 34.2355 28.0387 33.9393C28.1183 33.8616 28.1666 33.7573 28.1745 33.6463C28.1823 33.5353 28.1491 33.4253 28.0811 33.3371C28.0188 33.2449 27.9335 33.1707 27.8335 33.1219C27.7335 33.073 27.6225 33.0512 27.5115 33.0587Z"></path>
<path fill="white" d="M10.4902 26.9904C10.2922 26.2774 10.1431 25.5518 10.044 24.8185C9.94745 24.028 9.91444 23.2311 9.94524 22.4354C9.97886 21.2463 10.1623 20.0661 10.4912 18.9229C10.9566 17.2727 11.7055 15.716 12.7045 14.3225C13.3577 13.4124 14.111 12.5785 14.9504 11.8367C15.9306 10.9669 17.0246 10.2346 18.2023 9.65988C19.4824 9.02708 20.8484 8.58538 22.2567 8.34886C22.8074 8.25466 23.3632 8.19334 23.9212 8.16524C23.9462 8.15934 23.9721 8.15856 23.9974 8.16298C24.0226 8.16739 24.0468 8.17689 24.0683 8.19091C23.8481 8.27482 23.6369 8.35281 23.4276 8.43573C22.1432 8.94944 20.9447 9.6562 19.8736 10.5316C19.1469 11.1251 18.4851 11.7939 17.8992 12.5267C17.2707 13.307 16.7292 14.1534 16.2841 15.051C15.7017 16.2324 15.2902 17.4905 15.0619 18.7876C14.8732 19.8596 14.8146 20.9505 14.8872 22.0365C14.9807 23.5318 15.3265 25.0004 15.91 26.3803C16.063 26.7436 16.2249 27.1029 16.4036 27.4534C16.443 27.5136 16.4711 27.5805 16.4865 27.6508C15.8942 27.6044 15.2959 27.5659 14.7026 27.5077C13.8891 27.4274 13.0767 27.3389 12.2652 27.2421C11.6699 27.172 11.0766 27.1059 10.4902 26.9904ZM12.6403 22.2369C12.6256 22.4374 12.6788 22.637 12.7914 22.8036C12.9562 23.0553 13.1862 23.2172 13.4982 23.1906C13.6453 23.1807 13.7857 23.1256 13.9002 23.0328C14.0147 22.94 14.0977 22.8141 14.1379 22.6723C14.2051 22.4985 14.2229 22.3096 14.1895 22.1263C14.156 21.9431 14.0726 21.7726 13.9484 21.6338C13.8744 21.5409 13.7784 21.468 13.6691 21.4216C13.5598 21.3752 13.4407 21.3569 13.3225 21.3683C13.2043 21.3797 13.0909 21.4204 12.9924 21.4867C12.894 21.5531 12.8137 21.643 12.7588 21.7483C12.6694 21.8949 12.628 22.0657 12.6403 22.2369ZM13.361 19.2378C13.3623 19.1906 13.3597 19.1434 13.3531 19.0966C13.3067 18.8844 13.1991 18.7116 12.9829 18.6465C12.8806 18.6133 12.7704 18.6136 12.6684 18.6473C12.5663 18.6811 12.4776 18.7465 12.4152 18.834C12.3317 18.9349 12.2767 19.0563 12.2558 19.1856C12.235 19.3149 12.2491 19.4475 12.2968 19.5695C12.3243 19.6654 12.3803 19.7507 12.4573 19.8141C12.5343 19.8776 12.6288 19.9162 12.7282 19.9249C12.8264 19.9352 12.9255 19.918 13.0145 19.8751C13.1034 19.8322 13.1786 19.7653 13.2317 19.682C13.3257 19.5538 13.3715 19.3965 13.361 19.2378Z" opacity="0.4"></path>
<path fill="white" d="M17.1013 28.5835C17.1369 28.7809 17.277 28.9132 17.3846 29.0623C17.7615 29.6029 18.1825 30.1114 18.6433 30.5826C18.664 30.6059 18.6825 30.631 18.6986 30.6576C18.5999 30.6714 18.5012 30.6872 18.3955 30.6981C17.9553 30.7484 17.5386 31.1315 17.4774 31.5609C17.4168 31.9133 17.49 32.2756 17.6828 32.5768C17.805 32.7758 17.9686 32.9464 18.1624 33.0768C18.3562 33.2073 18.5758 33.2946 18.8062 33.333C19.4765 33.4485 20.0323 33.1187 20.1942 32.4938C20.2347 32.3379 20.2071 32.1799 20.2219 32.0239C20.4884 32.2066 20.751 32.3931 21.0205 32.5708C22.5322 33.5639 24.2245 34.2499 26.001 34.5897C27.1315 34.8062 28.2848 34.8792 29.4336 34.8069C30.7795 34.7254 32.1051 34.4391 33.3646 33.9579C34.1753 33.6517 34.9553 33.2699 35.6944 32.8176C35.7058 32.8086 35.7199 32.8037 35.7344 32.8037C35.749 32.8037 35.763 32.8086 35.7744 32.8176C35.6609 32.946 35.5552 33.0783 35.4388 33.1987C34.2969 34.379 32.9701 35.365 31.5106 36.1179C30.2478 36.7652 28.8998 37.2305 27.5065 37.5C26.9345 37.6072 26.3566 37.6804 25.7759 37.7191C25.2572 37.7555 24.7369 37.7647 24.2171 37.7468C23.1163 37.7114 22.0233 37.5497 20.9593 37.265C19.311 36.8294 17.7501 36.1131 16.3451 35.1475C15.5083 34.5812 14.7348 33.9265 14.038 33.1948C13.135 32.2478 12.3612 31.1856 11.7368 30.0357C11.4383 29.4966 11.1812 28.9355 10.9678 28.3574C11.3844 28.3574 11.8 28.391 12.2166 28.4068C13.4829 28.4529 14.7495 28.4976 16.0164 28.541L17.1013 28.5835ZM24.5972 34.7624C24.1322 34.7338 23.8262 35.1642 24.0473 35.571C24.1389 35.7289 24.2827 35.8498 24.4539 35.9129C24.6252 35.976 24.8131 35.9772 24.9852 35.9165C25.0698 35.8878 25.1459 35.8384 25.2066 35.7729C25.2673 35.7073 25.3108 35.6277 25.3329 35.5411C25.3551 35.4545 25.3553 35.3638 25.3335 35.2771C25.3117 35.1905 25.2687 35.1106 25.2083 35.0448C25.1371 34.9515 25.0442 34.8771 24.9377 34.8279C24.8312 34.7787 24.7144 34.7562 24.5972 34.7624Z" opacity="0.4"></path>
<path fill="white" d="M4.08814 14.7439C4.22153 14.7423 4.35448 14.7596 4.48303 14.7952C4.93589 14.8971 5.37501 15.0525 5.79108 15.2582C5.95466 15.3368 6.10542 15.4397 6.23829 15.5633C6.35721 15.6685 6.44575 15.8037 6.49471 15.9547C6.54367 16.1058 6.55126 16.2672 6.51668 16.4222C6.4229 16.8694 6.23928 17.2899 6.10205 17.7253C6.07342 17.8131 6.01518 17.7973 5.95101 17.7756C5.69828 17.6907 5.44457 17.6058 5.19185 17.519C4.41129 17.2557 3.63008 16.9892 2.84821 16.7193C2.65965 16.6551 2.65866 16.6542 2.72481 16.4597C2.82748 16.155 2.93146 15.8502 3.03677 15.5455C3.05947 15.4784 3.08711 15.4122 3.11476 15.3481C3.2964 14.9364 3.61033 14.7291 4.08814 14.7439ZM4.09703 15.4567C3.74953 15.4567 3.60935 15.5465 3.5047 15.818C3.48989 15.8545 3.47805 15.892 3.46423 15.9286C3.37735 16.1734 3.39414 16.1408 3.59158 16.2089L5.48603 16.8605C5.82662 16.976 5.82662 16.975 5.91843 16.6176C5.92436 16.5949 5.92633 16.5712 5.93324 16.5485C5.95809 16.4648 5.95686 16.3754 5.9297 16.2923C5.90255 16.2093 5.85075 16.1365 5.78121 16.0836C5.68463 16.0017 5.5761 15.9351 5.45938 15.8861C5.07753 15.7182 4.68095 15.586 4.27473 15.4912C4.21615 15.4766 4.15683 15.465 4.09703 15.4567Z"></path>
<path fill="white" d="M44.6843 14.195C44.7544 14.1664 44.7909 14.1535 44.8255 14.1377C44.8906 14.1071 44.9419 14.1061 44.9755 14.1851C45.0456 14.35 45.1206 14.5129 45.2006 14.6915L44.6557 14.9423L42.8728 15.7548C42.7242 15.8273 42.5654 15.8766 42.4019 15.9009C42.2764 15.9201 42.1481 15.9072 42.0289 15.8634C41.9098 15.8195 41.8037 15.7461 41.7207 15.6501C41.5078 15.4154 41.3631 15.1269 41.3021 14.8159C41.2363 14.4704 41.3679 14.2167 41.697 14.0548C41.7503 14.1654 41.8056 14.2759 41.8569 14.3885C41.9082 14.501 41.9616 14.6126 41.8569 14.7656C41.7029 14.9986 41.9359 15.3086 42.2212 15.2829C42.4137 15.2651 42.5756 15.1674 42.7622 15.0677C42.6743 15.0272 42.6062 14.9996 42.541 14.969C42.4488 14.9223 42.3682 14.8558 42.3049 14.7741C42.2415 14.6924 42.1972 14.5977 42.175 14.4968C42.1528 14.3959 42.1533 14.2913 42.1765 14.1906C42.1997 14.0899 42.2449 13.9956 42.3091 13.9146C42.3705 13.8323 42.4436 13.7595 42.5262 13.6984C42.9059 13.4163 43.3398 13.2156 43.8007 13.109C44.0673 13.0488 44.3348 13.0548 44.5579 13.2571C44.8255 13.5039 44.8758 13.7804 44.6843 14.195ZM44.0465 13.7606C44.0289 13.7605 44.0114 13.7625 43.9942 13.7665C43.6361 13.8588 43.2946 14.0067 42.9823 14.2049C42.9435 14.2336 42.908 14.2667 42.8767 14.3036C42.834 14.345 42.8047 14.3983 42.7928 14.4566C42.7808 14.5149 42.7866 14.5754 42.8096 14.6303C42.829 14.687 42.866 14.736 42.9152 14.7703C42.9643 14.8045 43.0231 14.8222 43.083 14.8209C43.1614 14.8249 43.24 14.8169 43.316 14.7972C43.6035 14.716 43.8771 14.5918 44.1275 14.4289C44.1941 14.3872 44.2549 14.3368 44.3082 14.2789C44.3553 14.2354 44.3854 14.1767 44.3934 14.1131C44.4013 14.0495 44.3865 13.9851 44.3516 13.9314C44.3254 13.8742 44.2818 13.8269 44.227 13.7962C44.1721 13.7655 44.1089 13.753 44.0465 13.7606Z"></path>
<path fill="white" d="M10.4893 8.24428C10.6506 8.08167 10.8217 7.92903 11.0016 7.7872C11.0954 7.81583 11.1359 7.89974 11.1991 7.95503C11.3886 8.11693 11.5643 8.13371 11.7569 8.00143C11.9494 7.86914 12.0234 7.67762 11.9612 7.49301C11.9271 7.38722 11.8598 7.29523 11.7693 7.23069C11.6788 7.16614 11.5699 7.13247 11.4587 7.13466C11.3102 7.15327 11.1652 7.19352 11.0283 7.25411C10.8325 7.33734 10.6278 7.39795 10.4182 7.43477C10.3013 7.45453 10.1816 7.44991 10.0666 7.4212C9.95157 7.39249 9.84374 7.3403 9.74985 7.26793C9.57233 7.13513 9.42999 6.96092 9.33522 6.7605C9.26978 6.63797 9.23629 6.50092 9.23784 6.36201C9.2394 6.22311 9.27594 6.08684 9.34411 5.9658C9.53788 5.60826 9.86387 5.34074 10.2523 5.22045C10.662 5.08718 11.0006 5.34287 11.1724 5.54821C11.2208 5.60645 11.202 5.64693 11.1527 5.68543C11.0322 5.78415 10.9118 5.88879 10.7953 5.99443C10.739 6.04576 10.6966 6.05958 10.6374 5.99443C10.6057 5.9595 10.5695 5.92896 10.5297 5.9036C10.4551 5.84316 10.3595 5.81482 10.264 5.82482C10.1685 5.83481 10.0808 5.88232 10.0203 5.95691C9.98371 5.98732 9.95353 6.02475 9.93156 6.06699C9.90959 6.10923 9.89629 6.15543 9.89242 6.20289C9.88856 6.25034 9.89422 6.29809 9.90907 6.34333C9.92391 6.38856 9.94765 6.43038 9.97889 6.46631C10.0296 6.5568 10.1103 6.62673 10.2071 6.66404C10.3039 6.70135 10.4107 6.70369 10.509 6.67067C10.7223 6.61538 10.9315 6.5443 11.1428 6.48211C11.2247 6.45743 11.3077 6.43077 11.3926 6.41399C11.5508 6.38638 11.7132 6.39461 11.8678 6.43807C12.0224 6.48152 12.1653 6.5591 12.286 6.66509C12.4067 6.77108 12.5021 6.90279 12.5651 7.05051C12.6281 7.19824 12.6572 7.35822 12.6503 7.51868C12.6187 8.07053 11.8605 8.76849 11.3057 8.75566C11.1236 8.74865 10.9487 8.68284 10.8072 8.56809C10.6882 8.47375 10.5814 8.36498 10.4893 8.24428Z"></path>
<path fill="white" d="M6.93994 9.90373C7.03866 9.78427 7.11665 9.67963 7.19958 9.57597C7.3368 9.4042 7.3368 9.4042 7.52733 9.49107C7.56583 9.44862 7.53523 9.40321 7.53325 9.35977C7.50561 8.84642 7.95183 8.44265 8.43754 8.60061C9.1168 8.81037 9.68717 9.2773 10.0269 9.90175C10.2422 10.2966 9.96278 10.7902 9.51952 10.889C9.46621 10.9008 9.41192 10.9057 9.35762 10.9146C9.34084 10.9916 9.40994 11.0035 9.44647 11.0341C9.64391 11.1999 9.85024 11.3618 10.0526 11.5277C10.2056 11.6501 10.1681 11.6452 10.0724 11.7646L9.74559 12.1674L6.93994 9.90373ZM9.42771 10.2502C9.40417 10.1401 9.34439 10.041 9.25791 9.96888C9.02795 9.73217 8.77004 9.52431 8.48986 9.3499C8.42488 9.30585 8.35222 9.27437 8.27564 9.2571C8.2185 9.24132 8.15795 9.24304 8.1018 9.26205C8.04566 9.28106 7.99651 9.31648 7.96072 9.36372C7.92236 9.40895 7.89847 9.46465 7.89214 9.52362C7.8858 9.58258 7.89731 9.64209 7.92518 9.69444C7.95249 9.75112 7.98773 9.80364 8.02982 9.85042C8.27102 10.1088 8.54636 10.3329 8.84822 10.5168C8.92168 10.5631 9.00473 10.5922 9.09107 10.6017C9.27568 10.6214 9.43462 10.4783 9.42771 10.2463V10.2502Z"></path>
<path fill="white" d="M30.2087 4.13438C30.0251 4.26864 29.8592 4.3496 29.6559 4.31801C29.2363 4.25285 28.9885 3.9942 28.9875 3.56279C28.9808 2.9753 29.1388 2.39768 29.4436 1.89539C29.7723 1.35341 30.3745 1.36229 30.727 1.89539C30.7398 1.91415 30.7487 1.93587 30.804 1.92994C30.8731 1.67919 30.9461 1.41758 31.0172 1.15498C31.0843 0.908178 31.0834 0.908176 31.3232 0.971358C31.4072 0.994063 31.4921 1.01381 31.575 1.03849C31.7507 1.08884 31.7527 1.09081 31.7063 1.2616C31.6076 1.61897 31.5088 1.97535 31.4101 2.33272L30.8741 4.29333C30.8662 4.32393 30.8612 4.35552 30.8523 4.38514C30.801 4.56086 30.801 4.56184 30.6332 4.51939C30.5256 4.49274 30.4219 4.45325 30.3133 4.4345C30.186 4.41179 30.1574 4.35058 30.2038 4.23705C30.21 4.20321 30.2117 4.16867 30.2087 4.13438ZM29.6776 3.44926C29.6776 3.48875 29.6776 3.52824 29.6776 3.56674C29.6778 3.63039 29.6996 3.69208 29.7394 3.74175C29.7792 3.79142 29.8347 3.82612 29.8967 3.84019C29.9566 3.86181 30.0221 3.86224 30.0823 3.8414C30.1425 3.82056 30.1937 3.77972 30.2274 3.72568C30.2612 3.6828 30.2903 3.63647 30.3143 3.58747C30.461 3.25659 30.5568 2.90546 30.5986 2.54596C30.6046 2.48311 30.6026 2.41976 30.5927 2.3574C30.587 2.28601 30.5543 2.21947 30.5013 2.17126C30.4483 2.12306 30.379 2.09678 30.3074 2.09777C30.236 2.09291 30.1649 2.11202 30.1056 2.15207C30.0462 2.19212 30.0019 2.25083 29.9797 2.3189C29.8141 2.67531 29.7119 3.0578 29.6776 3.44926Z"></path>
<path fill="white" d="M13.6008 6.87176L14.124 7.66153C14.2119 7.79579 14.2119 7.79777 14.0737 7.89056C13.9355 7.98336 13.7992 8.0732 13.6669 8.16106C13.5959 8.14329 13.5781 8.08504 13.5485 8.04062C12.9496 7.14423 12.3513 6.24686 11.7537 5.3485C11.6175 5.14414 11.6451 5.18462 11.813 5.06813C11.8643 5.03259 11.9186 4.99902 11.9709 4.96447C12.1772 4.82823 12.1772 4.82824 12.3569 4.99606C12.3569 4.85245 12.4003 4.7122 12.4816 4.59377C12.5628 4.47535 12.678 4.38431 12.812 4.33266C12.9047 4.28775 13.0067 4.2655 13.1097 4.26773C13.2127 4.26996 13.3137 4.29661 13.4043 4.34549C13.551 4.42335 13.6819 4.5278 13.7903 4.6535C14.0672 4.95699 14.2962 5.30086 14.4695 5.67329C14.5116 5.76601 14.5446 5.86254 14.5683 5.96155C14.7025 6.50847 14.3264 6.94087 13.7657 6.88953L13.6008 6.87176ZM13.9177 6.20836C13.9109 6.12809 13.8885 6.04993 13.8515 5.97833C13.7004 5.65837 13.5035 5.36207 13.2671 5.09873C13.2143 5.04018 13.1519 4.9911 13.0825 4.95361C13.0368 4.93116 12.9862 4.92052 12.9353 4.92266C12.8844 4.9248 12.8348 4.93965 12.7911 4.96586C12.7474 4.99207 12.711 5.0288 12.6852 5.0727C12.6593 5.11661 12.6449 5.16628 12.6432 5.2172C12.6438 5.31177 12.6679 5.40471 12.7133 5.48769C12.8638 5.79036 13.0508 6.07349 13.2701 6.33077C13.3234 6.39809 13.3908 6.453 13.4675 6.49169C13.5154 6.51447 13.5683 6.52479 13.6213 6.52166C13.6743 6.51854 13.7256 6.50208 13.7705 6.47381C13.8154 6.44555 13.8525 6.40639 13.8782 6.35998C13.9039 6.31358 13.9175 6.26142 13.9177 6.20836Z"></path>
<path fill="white" d="M35.1901 3.8608L34.5652 3.56464C34.6067 3.44716 34.6491 3.33955 34.6817 3.22898C34.7047 3.1701 34.7158 3.10727 34.7144 3.04408C34.7131 2.9809 34.6993 2.9186 34.6738 2.86075C34.6459 2.81133 34.6077 2.7685 34.5617 2.73519C34.5158 2.70187 34.4632 2.67886 34.4075 2.66771C34.3519 2.65656 34.2945 2.65753 34.2392 2.67057C34.184 2.68362 34.1322 2.70841 34.0874 2.74327C33.9968 2.81973 33.9199 2.91123 33.8604 3.01377C33.5855 3.45551 33.3603 3.92631 33.1891 4.41758C33.1582 4.50657 33.135 4.59807 33.1199 4.69104C33.0864 4.8954 33.1486 5.02275 33.3115 5.10666C33.3861 5.15281 33.4746 5.17119 33.5615 5.15855C33.6483 5.14591 33.7279 5.10307 33.7863 5.03755C33.91 4.91368 34.0103 4.76855 34.0825 4.6091C34.1279 4.51532 34.1713 4.49854 34.2631 4.54888C34.4013 4.62391 34.5455 4.68907 34.6886 4.75225C34.7597 4.78384 34.7873 4.82037 34.7488 4.89638C34.6408 5.11479 34.4989 5.31471 34.3283 5.48871C34.2106 5.60678 34.0625 5.68994 33.9005 5.72898C33.7384 5.76801 33.5687 5.76139 33.4102 5.70984C33.1899 5.64736 32.984 5.5424 32.804 5.40085C32.668 5.29762 32.563 5.15887 32.5006 4.99986C32.4383 4.84085 32.421 4.66773 32.4506 4.49952C32.4639 4.39905 32.486 4.29994 32.5168 4.20336C32.6843 3.66047 32.929 3.14448 33.2434 2.67121C33.6777 2.02261 34.1901 1.90809 34.8673 2.29015C35.3787 2.5794 35.5337 2.98909 35.3402 3.54687C35.3081 3.65919 35.2574 3.76532 35.1901 3.8608Z"></path>
<path fill="white" d="M34.9096 6.49504C34.7586 6.39632 34.6134 6.2976 34.4525 6.20974C34.3627 6.15643 34.3538 6.11102 34.416 6.02118C34.6411 5.67961 34.8602 5.33013 35.0814 4.98856L36.188 3.25699C36.2177 3.21059 36.2512 3.16715 36.2927 3.10693C36.4566 3.21257 36.6116 3.3182 36.7725 3.41396C36.8584 3.46431 36.8495 3.50774 36.8011 3.58178C36.6234 3.85129 36.4526 4.12475 36.2799 4.39623C36.3243 4.45645 36.3707 4.4219 36.4082 4.41005C36.4883 4.38875 36.5719 4.38354 36.6541 4.39473C36.7363 4.40591 36.8154 4.43326 36.887 4.47521C37.3302 4.68746 37.4566 5.04977 37.2029 5.46242C36.8603 6.02809 36.4921 6.57896 36.1367 7.14068C36.0903 7.21373 36.0488 7.2394 35.9689 7.18313C35.8198 7.08441 35.6658 6.98569 35.5079 6.88697C35.5254 6.81718 35.5592 6.75255 35.6066 6.69841C35.8869 6.26009 36.1683 5.82242 36.4506 5.38542C36.4864 5.33323 36.5193 5.27918 36.5494 5.22352C36.6372 5.05075 36.6214 4.94907 36.4961 4.84443C36.438 4.79017 36.3629 4.75759 36.2836 4.7522C36.2043 4.7468 36.1256 4.76892 36.0607 4.81481C35.9799 4.87918 35.9127 4.95907 35.8633 5.04977C35.5947 5.46637 35.3262 5.88396 35.0577 6.30254C35.0204 6.37514 34.9702 6.44037 34.9096 6.49504Z"></path>
<path fill="white" d="M22.7482 0.693909C22.7679 0.941699 22.7897 1.16876 22.8025 1.39582C22.8084 1.50638 22.8479 1.54489 22.9624 1.53106C23.2448 1.49849 23.5281 1.47775 23.8104 1.45307C24.0217 1.4353 24.0316 1.43629 24.0405 1.63768C24.0632 2.09081 24.153 2.0227 23.6703 2.0612C23.4501 2.07897 23.23 2.10068 23.0098 2.10957C22.8933 2.1145 22.8607 2.16091 22.8716 2.27147C22.9022 2.57751 22.9289 2.88354 22.9496 3.19057C22.9604 3.34655 23.0325 3.53609 22.9496 3.65159C22.8667 3.7671 22.6534 3.70095 22.5024 3.72465C22.4718 3.72958 22.4402 3.73057 22.4037 3.73649C22.2901 3.75821 22.2546 3.70885 22.2477 3.5973C22.225 3.25079 22.1914 2.90625 22.1628 2.55974C22.1016 1.81341 22.0443 1.06609 21.9792 0.319758C21.9683 0.201293 21.9969 0.149958 22.1213 0.141073C22.7028 0.0976358 23.2852 0.0492611 23.8667 0.000887782C23.9437 -0.00503548 23.9862 0.0176704 23.9891 0.0996089C23.995 0.218074 24 0.336539 24.0128 0.454017C24.0256 0.571495 23.9783 0.587291 23.8795 0.593214C23.5488 0.614933 23.2191 0.646522 22.8923 0.675152C22.8548 0.6791 22.8173 0.685024 22.7482 0.693909Z"></path>
<path fill="white" d="M41.7717 13.7449L41.4203 13.1713C41.5368 13.0983 41.6414 13.0302 41.748 12.966L42.9386 12.2414C42.9933 12.2114 43.0464 12.1784 43.0975 12.1427C43.1528 12.1107 43.1954 12.0606 43.2181 12.0009C43.2407 11.9412 43.2421 11.8755 43.2219 11.8149C43.2013 11.7423 43.1574 11.6785 43.0969 11.6333C43.0364 11.5882 42.9627 11.5642 42.8873 11.5651C42.7765 11.5721 42.6699 11.6097 42.5793 11.6737L41.3877 12.3974C41.289 12.4586 41.1853 12.5178 41.0767 12.583C40.942 12.3977 40.819 12.2041 40.7085 12.0035L43.0215 10.5957C43.1203 10.7566 43.2111 10.9037 43.3039 11.0478C43.3483 11.117 43.368 11.1722 43.2733 11.2157C43.2199 11.2466 43.1687 11.2812 43.1203 11.3193C43.2022 11.3332 43.2496 11.3381 43.296 11.3489C43.46 11.3947 43.6069 11.4877 43.7184 11.6164C43.8299 11.745 43.901 11.9037 43.9229 12.0726C43.9271 12.1475 43.9163 12.2226 43.891 12.2933C43.8657 12.364 43.8265 12.4289 43.7758 12.4842C43.7042 12.5685 43.6191 12.6402 43.524 12.6965C42.9653 13.0374 42.4058 13.377 41.8458 13.7153C41.8218 13.7268 41.797 13.7367 41.7717 13.7449Z"></path>
<path fill="white" d="M16.8537 5.26392C16.6997 5.34487 16.5496 5.41398 16.4085 5.49888C16.3097 5.5591 16.2347 5.55515 16.1676 5.45939C16.1486 5.43573 16.1278 5.41361 16.1054 5.39325C16.0264 5.40411 16.058 5.4663 16.0481 5.50381C15.9603 5.82564 15.7154 5.97373 15.4193 6.04382C15.1231 6.11391 14.9345 5.96188 14.7726 5.74766C14.6828 5.6273 14.6159 5.49143 14.5752 5.34685C14.5429 5.24923 14.5351 5.1452 14.5523 5.04385C14.5695 4.94249 14.6113 4.84689 14.6739 4.76538C14.823 4.55807 15.0303 4.40999 15.2129 4.23722C15.36 4.09704 15.3788 3.9766 15.289 3.8147C15.1991 3.6528 15.0777 3.60146 14.9158 3.65872C14.8754 3.66842 14.8374 3.68604 14.8039 3.71056C14.7703 3.73507 14.742 3.76599 14.7205 3.80152C14.699 3.83705 14.6848 3.87649 14.6787 3.91756C14.6725 3.95863 14.6746 4.00051 14.6848 4.04077C14.7243 4.23229 14.7243 4.23229 14.5624 4.31719L14.3926 4.40209C14.1951 4.50081 14.1803 4.49291 14.1122 4.29547C14.0568 4.15867 14.0461 4.00787 14.0815 3.86461C14.117 3.72135 14.1968 3.59297 14.3096 3.4978C14.5494 3.2776 14.8495 3.13422 15.1715 3.08614C15.2805 3.06501 15.3934 3.07606 15.4963 3.11796C15.5992 3.15985 15.6877 3.23077 15.751 3.32208C15.8118 3.40461 15.865 3.4925 15.9099 3.58468C16.1133 3.97561 16.3147 4.36819 16.5141 4.76242C16.5983 4.94748 16.7131 5.11702 16.8537 5.26392ZM15.591 4.39518C15.5011 4.51868 15.3989 4.63279 15.286 4.73576C15.2431 4.78879 15.2122 4.85051 15.1955 4.91663C15.1788 4.98276 15.1767 5.05173 15.1893 5.11876C15.2019 5.18579 15.2289 5.24929 15.2684 5.30487C15.3079 5.36044 15.3591 5.40677 15.4183 5.44063C15.4529 5.4593 15.4915 5.46907 15.5308 5.46907C15.5701 5.46907 15.6088 5.4593 15.6434 5.44063C15.7406 5.39517 15.816 5.31309 15.8529 5.2123C15.8899 5.11151 15.8856 5.00019 15.8408 4.9026C15.7756 4.7407 15.6898 4.59065 15.591 4.39518Z"></path>
<path fill="white" d="M37.9403 6.31926C37.811 6.21461 37.6847 6.10898 37.5543 6.0073C37.4941 5.95991 37.4803 5.92437 37.5366 5.85625C37.6397 5.71936 37.7875 5.62296 37.9544 5.58382C38.1212 5.54467 38.2965 5.56527 38.4497 5.64203C38.7223 5.77085 38.9557 5.96983 39.126 6.21856C39.2043 6.31922 39.2481 6.44249 39.2508 6.57002C39.2534 6.69755 39.2149 6.82254 39.1408 6.92639C39.0937 6.99919 39.0423 7.06908 38.9868 7.13568C38.7775 7.39334 38.5643 7.64607 38.3569 7.90472C38.1654 8.14362 37.9482 8.36377 37.815 8.65993C37.6758 8.54838 37.5504 8.44077 37.4201 8.34304C37.4014 8.33227 37.3851 8.31773 37.3723 8.30035C37.3595 8.28296 37.3504 8.26311 37.3457 8.24204C37.341 8.22098 37.3407 8.19916 37.3448 8.17797C37.3489 8.15678 37.3574 8.13668 37.3697 8.11894C37.3875 8.08636 37.4171 8.05378 37.3806 7.99653C37.0716 8.09525 36.8228 7.96987 36.6066 7.75071C36.5307 7.68088 36.4759 7.59104 36.4487 7.49151C36.4214 7.39198 36.4228 7.28679 36.4526 7.188C36.5252 6.91849 36.6988 6.68729 36.9373 6.54237C37.1427 6.41107 37.3618 6.43772 37.5751 6.51867C37.7656 6.59172 37.9482 6.68749 38.1388 6.76153C38.1755 6.7819 38.2162 6.79422 38.2581 6.79766C38.3 6.80111 38.3421 6.7956 38.3817 6.7815C38.4213 6.7674 38.4574 6.74503 38.4877 6.71588C38.518 6.68674 38.5417 6.65148 38.5574 6.61246C38.5983 6.55323 38.6151 6.48058 38.6043 6.40937C38.5935 6.33817 38.5558 6.27379 38.4991 6.22942C38.4498 6.17141 38.38 6.13463 38.3042 6.12673C38.2285 6.11882 38.1526 6.1404 38.0924 6.18697C38.0391 6.22802 37.9884 6.27219 37.9403 6.31926ZM38.118 7.15542C37.9633 7.12605 37.8126 7.07867 37.6689 7.01425C37.6023 6.99658 37.5327 6.99366 37.4649 7.00568C37.3971 7.01771 37.3327 7.04441 37.2763 7.0839C37.2199 7.12338 37.1728 7.17471 37.1383 7.2343C37.1038 7.29389 37.0827 7.3603 37.0765 7.42888C37.0752 7.46812 37.0835 7.50709 37.1007 7.54237C37.1179 7.57766 37.1435 7.60818 37.1753 7.63126C37.2536 7.69936 37.3551 7.73469 37.4588 7.72991C37.5625 7.72513 37.6603 7.68061 37.732 7.60559C37.8663 7.48219 37.9719 7.33213 38.118 7.15542Z"></path>
<path fill="white" d="M26.4907 2.1924C26.4961 2.48434 26.4565 2.77538 26.3732 3.05522C26.3234 3.23148 26.2193 3.38757 26.0758 3.50134C25.9322 3.61511 25.7565 3.68077 25.5735 3.68901C25.4005 3.70533 25.226 3.69467 25.0562 3.65742C24.9196 3.6324 24.7921 3.57149 24.6868 3.48093C24.5815 3.39037 24.5022 3.27343 24.457 3.1421C24.4062 2.9927 24.3747 2.83744 24.3632 2.68008C24.3241 2.3189 24.3488 1.95367 24.4363 1.60106C24.5676 1.07487 24.8854 0.836957 25.4235 0.833008C25.5566 0.833742 25.6892 0.850312 25.8184 0.882368C26.1728 0.965294 26.3988 1.24467 26.4591 1.67214C26.4854 1.84423 26.496 2.01838 26.4907 2.1924ZM25.0434 2.36812C25.0434 2.56557 25.0227 2.79657 25.1046 3.01672C25.1241 3.07725 25.1626 3.12991 25.2143 3.16689C25.266 3.20387 25.3283 3.22321 25.3919 3.22206C25.4514 3.2272 25.5109 3.21308 25.5617 3.1818C25.6126 3.15051 25.652 3.10371 25.6742 3.04831C25.6989 2.99891 25.7182 2.94693 25.7315 2.89332C25.8176 2.4929 25.831 2.08026 25.771 1.6751C25.7275 1.41349 25.6278 1.30884 25.4482 1.30588C25.2685 1.30292 25.152 1.42632 25.0967 1.68201C25.0581 1.90862 25.0403 2.13827 25.0434 2.36812Z"></path>
<path fill="white" d="M43.9307 17.0829C44.1124 17.0731 44.1124 17.0731 44.1706 17.2458C44.1864 17.2902 44.2012 17.3357 44.216 17.3801C44.3236 17.7118 44.3148 17.6614 44.0127 17.7039C43.8601 17.731 43.7029 17.7112 43.5619 17.647C43.4209 17.5828 43.3027 17.4774 43.2229 17.3445C43.0936 17.1451 43.0168 16.9162 42.9998 16.6792C42.9805 16.5329 43.0036 16.3841 43.0664 16.2505C43.1293 16.117 43.2292 16.0043 43.3542 15.9259C43.8109 15.6258 44.3404 15.4552 44.8864 15.4323C45.0453 15.4207 45.204 15.4564 45.3427 15.535C45.4813 15.6135 45.5935 15.7313 45.6653 15.8736C45.8089 16.1027 45.8779 16.3707 45.8627 16.6407C45.8535 16.7392 45.8244 16.8348 45.777 16.9217C45.7297 17.0086 45.6651 17.085 45.5873 17.1461C45.3321 17.3351 45.0428 17.4728 44.7353 17.5519C44.6445 17.5815 44.6257 17.5272 44.605 17.465C44.5083 17.1649 44.4112 16.8651 44.3138 16.5656C44.294 16.5054 44.2743 16.4452 44.2565 16.385C44.2318 16.3011 44.1854 16.2754 44.0986 16.307C43.9464 16.3504 43.8019 16.417 43.6701 16.5044C43.5181 16.618 43.4727 16.7483 43.5181 16.8904C43.5635 17.0326 43.679 17.0879 43.8606 17.0879C43.8883 17.0869 43.908 17.0849 43.9307 17.0829ZM44.9545 16.0631C44.9258 16.0631 44.8785 16.0681 44.833 16.076C44.6109 16.1135 44.602 16.1293 44.6721 16.3465C44.6932 16.4123 44.7149 16.4781 44.7373 16.5439C44.836 16.8549 44.836 16.8559 45.1213 16.6969C45.169 16.6708 45.2143 16.6404 45.2566 16.6061C45.3035 16.5697 45.3371 16.5188 45.3521 16.4613C45.3671 16.4038 45.3626 16.3429 45.3395 16.2882C45.2872 16.1313 45.1717 16.0622 44.9545 16.0631Z"></path>
<path fill="white" d="M18.5171 2.5551C18.5171 2.00424 18.7274 1.70512 19.1588 1.54914C19.2921 1.49959 19.4316 1.4687 19.5734 1.45733C19.7158 1.44241 19.8595 1.46738 19.9885 1.52944C20.1175 1.59151 20.2267 1.68822 20.3039 1.80877C20.4787 2.05953 20.5557 2.34977 20.6347 2.63902C20.6623 2.73774 20.5981 2.75452 20.5221 2.77427C20.1707 2.86213 19.8222 2.96184 19.4688 3.04279C19.3414 3.0724 19.3197 3.11485 19.3582 3.24023C19.3938 3.40171 19.4587 3.55529 19.5497 3.69336C19.5832 3.74755 19.6333 3.78949 19.6925 3.81296C19.7517 3.83644 19.8169 3.84019 19.8785 3.82367C19.9402 3.80843 19.9956 3.77442 20.0372 3.72632C20.0787 3.67822 20.1043 3.61842 20.1104 3.55515V3.53146C20.1332 3.43965 20.07 3.32217 20.1351 3.25701C20.2171 3.17409 20.3553 3.18495 20.4668 3.15039C20.4974 3.14151 20.5271 3.13163 20.5577 3.12472C20.6959 3.09412 20.7087 3.10301 20.7294 3.23332C20.8054 3.72692 20.5912 4.08133 20.1174 4.24225C20.0207 4.27495 19.9217 4.30003 19.8212 4.31728C19.6385 4.36114 19.4464 4.3413 19.2766 4.26105C19.1067 4.1808 18.9694 4.04495 18.8873 3.87599C18.6774 3.46464 18.5516 3.01561 18.5171 2.5551ZM19.1637 2.37839C19.1706 2.42677 19.1785 2.50476 19.1914 2.58176C19.2042 2.65876 19.2486 2.68542 19.3266 2.66173C19.4253 2.63211 19.524 2.60743 19.6228 2.58275C19.9466 2.50081 19.9535 2.48403 19.8005 2.18293C19.7825 2.14896 19.7628 2.116 19.7412 2.08421C19.6109 1.88676 19.3177 1.94205 19.22 2.10099C19.1769 2.18684 19.1572 2.2825 19.1627 2.37839H19.1637Z"></path>
<path fill="white" d="M28.8935 2.1326C28.8892 2.51179 28.8225 2.88767 28.696 3.24519C28.5144 3.73879 28.2024 3.93624 27.6812 3.90761C27.6417 3.90761 27.6022 3.90267 27.5627 3.89675C26.9566 3.80395 26.696 3.5068 26.689 2.89275C26.6815 2.48909 26.7484 2.0875 26.8865 1.7081C26.9553 1.48768 27.0988 1.29813 27.2922 1.17204C27.6585 0.949921 28.3634 1.04864 28.6585 1.35962C28.7859 1.50128 28.863 1.68104 28.8777 1.87099C28.8925 1.97465 28.8905 2.0783 28.8935 2.1326ZM28.2123 2.15333C28.2251 2.01607 28.213 1.87763 28.1768 1.74463C28.1635 1.69083 28.1342 1.64233 28.0928 1.60551C28.0513 1.56868 27.9998 1.54525 27.9448 1.5383C27.8867 1.52406 27.8257 1.5284 27.7702 1.55072C27.7148 1.57304 27.6678 1.6122 27.6358 1.66269C27.5932 1.72815 27.5599 1.79927 27.5371 1.87395C27.431 2.24487 27.3756 2.62841 27.3722 3.01418C27.3722 3.26493 27.4709 3.39722 27.6387 3.4298C27.8066 3.46238 27.9477 3.37056 28.0336 3.11389C28.1304 2.80108 28.1903 2.47805 28.2123 2.15136V2.15333Z"></path>
<path fill="white" d="M6.97168 13.22C7.08011 13.2699 7.18005 13.3365 7.26784 13.4174C7.54821 13.6642 7.61238 13.9683 7.50576 14.3178C7.48928 14.3701 7.46984 14.4216 7.44752 14.4718C7.18986 15.0641 6.7851 15.2477 6.17007 15.0453C5.80811 14.9321 5.46701 14.7607 5.16015 14.5379C5.02406 14.4366 4.91455 14.3038 4.84101 14.1509C4.76747 13.998 4.7321 13.8296 4.73792 13.6601C4.74375 13.4905 4.79059 13.3249 4.87444 13.1774C4.9583 13.0299 5.07666 12.905 5.21938 12.8132C5.45829 12.6573 5.71299 12.676 5.97262 12.7402C6.16869 12.7983 6.35982 12.8719 6.54422 12.9603C6.64294 13.0028 6.67058 13.0521 6.61629 13.1578C6.46162 13.4585 6.31256 13.7626 6.16908 14.07C6.07036 14.2753 6.0289 14.2467 6.28458 14.373C6.41009 14.4402 6.54909 14.4784 6.69131 14.4846C6.7546 14.4945 6.81937 14.483 6.87548 14.4521C6.93158 14.4212 6.97583 14.3726 7.0013 14.3138C7.05362 14.1865 7.04474 14.0403 6.92923 13.9693C6.65972 13.8054 6.74364 13.6247 6.86605 13.4263C6.90258 13.3641 6.93121 13.2989 6.97168 13.22ZM5.70805 14.0739C5.76136 13.9693 5.81467 13.8656 5.86601 13.762C6.03877 13.4135 6.021 13.3779 5.63993 13.3088C5.5759 13.2887 5.50694 13.2909 5.44434 13.3152C5.38175 13.3394 5.32923 13.3841 5.2954 13.4421C5.25637 13.5022 5.23831 13.5735 5.24402 13.6449C5.24973 13.7163 5.27891 13.7839 5.32699 13.837C5.42649 13.9534 5.55961 14.0362 5.70805 14.0739Z"></path>
<path fill="white" d="M8.16128 11.3036C8.27796 11.3704 8.38109 11.4584 8.46534 11.5632C8.56134 11.6691 8.62545 11.8 8.65025 11.9408C8.67505 12.0816 8.65955 12.2266 8.60552 12.3589C8.58874 12.4033 8.57097 12.4468 8.55024 12.4892C8.23927 13.1477 7.74764 13.3214 7.09706 12.9966C6.79156 12.8488 6.50652 12.662 6.24905 12.4408C6.11672 12.3298 6.01395 12.1878 5.94994 12.0273C5.88592 11.8669 5.86265 11.6931 5.88221 11.5215C5.90177 11.3499 5.96354 11.1858 6.06201 11.0439C6.16048 10.902 6.29258 10.7867 6.44649 10.7083C6.62328 10.6157 6.82855 10.5935 7.02105 10.6461C7.30377 10.7242 7.57092 10.8505 7.81082 11.0193C7.88486 11.0657 7.87104 11.1121 7.83056 11.1743C7.67261 11.4191 7.51959 11.6679 7.36361 11.9137C7.31721 11.9877 7.27377 12.0618 7.22343 12.1328C7.20908 12.1442 7.19816 12.1593 7.1919 12.1765C7.18564 12.1937 7.18427 12.2123 7.18796 12.2302C7.19164 12.2481 7.20024 12.2646 7.21277 12.2779C7.22531 12.2913 7.2413 12.3008 7.25897 12.3056C7.40599 12.4128 7.57432 12.4872 7.75257 12.5238C7.81426 12.5402 7.87968 12.5357 7.9385 12.5108C7.99731 12.486 8.04617 12.4423 8.07736 12.3865C8.14449 12.2622 8.14647 12.1151 8.04479 12.0361C7.79206 11.8386 7.89868 11.6738 8.04479 11.4911C8.08131 11.4359 8.11587 11.3737 8.16128 11.3036ZM7.17407 11.4092C7.05105 11.3242 6.91355 11.2623 6.76832 11.2266C6.71095 11.2112 6.65016 11.2144 6.59477 11.2359C6.53938 11.2574 6.49228 11.296 6.46031 11.346C6.42361 11.3924 6.40117 11.4484 6.39574 11.5073C6.3903 11.5662 6.40211 11.6254 6.42971 11.6777C6.49998 11.8013 6.6023 11.9036 6.72587 11.9739C6.73545 11.9838 6.7474 11.991 6.76058 11.9949C6.77377 11.9988 6.78773 11.9992 6.80112 11.9961C6.81452 11.993 6.8269 11.9866 6.83706 11.9773C6.84722 11.9681 6.85483 11.9563 6.85915 11.9433C6.97565 11.7716 7.08212 11.5932 7.17802 11.4092H7.17407Z"></path>
<path fill="white" d="M41.2879 11.2572C40.8683 11.6244 40.3896 11.6037 40.0263 11.2098C39.9341 11.1121 39.8545 11.0033 39.7893 10.886C39.6097 10.5562 39.6146 10.2305 39.8505 9.93429C40.1639 9.53406 40.5707 9.21678 41.0352 9.01026C41.4429 8.8296 41.7805 8.91154 42.0876 9.2314C42.2049 9.34916 42.3007 9.48646 42.3709 9.63714C42.425 9.74737 42.4512 9.86919 42.4472 9.99191C42.4433 10.1146 42.4093 10.2345 42.3482 10.341C42.1873 10.6323 41.9345 10.8346 41.6798 11.0321C41.6038 11.0923 41.5683 11.037 41.5298 10.9867L40.9039 10.1841C40.8693 10.1406 40.8377 10.0962 40.8052 10.0537C40.7997 10.0461 40.7927 10.0398 40.7845 10.0351C40.7764 10.0304 40.7674 10.0275 40.758 10.0265C40.7487 10.0256 40.7393 10.0267 40.7304 10.0296C40.7215 10.0326 40.7133 10.0375 40.7064 10.0439C40.5559 10.1461 40.4243 10.2737 40.3175 10.421C40.2754 10.4738 40.2513 10.5388 40.2488 10.6063C40.2463 10.6738 40.2655 10.7403 40.3037 10.7961C40.3866 10.9126 40.5209 10.9462 40.6867 10.9008C40.7756 10.8771 40.8605 10.7724 40.9444 10.8198C41.0238 10.8833 41.0907 10.961 41.1418 11.0489C41.1872 11.118 41.2376 11.189 41.2879 11.2572ZM41.8921 9.82669C41.8894 9.78297 41.8782 9.7402 41.859 9.70084C41.8398 9.66148 41.813 9.62629 41.7802 9.59731C41.7473 9.56832 41.7091 9.54611 41.6676 9.53194C41.6262 9.51777 41.5824 9.51192 41.5387 9.51473C41.4449 9.52473 41.3547 9.55614 41.2751 9.60654C41.0678 9.72796 41.0658 9.73488 41.2188 9.93034C41.2622 9.98563 41.3027 10.0439 41.3471 10.0982C41.5446 10.3331 41.4794 10.3687 41.7322 10.1199C41.8215 10.0466 41.8788 9.94147 41.8921 9.82669Z"></path>
<path fill="white" d="M18.2545 2.85217C18.1479 2.91671 18.033 2.96652 17.9129 3.00025C17.8393 3.04334 17.7563 3.06774 17.6711 3.07133C17.5941 3.06145 17.5931 2.94595 17.5506 2.88178C17.4391 2.71395 17.3226 2.65077 17.1824 2.69421C17.0087 2.74752 16.9297 2.86895 16.9415 3.07626C16.944 3.14733 16.9546 3.21788 16.9731 3.28654C17.0608 3.59694 17.1768 3.89865 17.3196 4.18786C17.3576 4.26575 17.4068 4.3376 17.4657 4.4011C17.5082 4.44865 17.5648 4.48125 17.6272 4.49405C17.6896 4.50686 17.7545 4.49919 17.8122 4.47218C17.8685 4.45245 17.9169 4.41507 17.9501 4.36561C17.9834 4.31615 17.9998 4.25727 17.9969 4.19773C18 4.08721 17.9812 3.97716 17.9416 3.87393C17.911 3.78903 17.9356 3.74263 18.0196 3.71301C18.1607 3.66464 18.3009 3.61429 18.4391 3.55605C18.4491 3.54966 18.4605 3.54587 18.4724 3.54503C18.4842 3.54418 18.496 3.54631 18.5068 3.55122C18.5176 3.55612 18.527 3.56365 18.5342 3.57312C18.5413 3.58258 18.546 3.59368 18.5477 3.60541C18.7037 4.05854 18.6988 4.52845 18.1825 4.81079C17.4638 5.20568 17.0077 5.04673 16.6572 4.38037C16.4932 4.07458 16.3777 3.74522 16.3146 3.40402C16.281 3.23712 16.2884 3.06456 16.3362 2.90116C16.3841 2.73776 16.4708 2.58842 16.5891 2.46597C16.7074 2.34351 16.8536 2.25162 17.0153 2.19817C17.1769 2.14473 17.3491 2.13133 17.5171 2.15914C17.7955 2.19863 18.1124 2.41681 18.2545 2.85217Z"></path>
<path fill="white" d="M40.5489 6.2627C40.6585 6.38807 40.772 6.53023 40.8994 6.65758C40.9774 6.73557 40.9556 6.78789 40.8905 6.85502C40.7572 6.98928 40.6259 7.12552 40.4956 7.26077C39.8901 7.88271 39.2853 8.50465 38.6811 9.1266C38.6209 9.18879 38.5696 9.25888 38.4985 9.34477C38.3346 9.1878 38.1954 9.04861 38.0542 8.92224C37.9881 8.86103 38.0167 8.81859 38.0671 8.76725C38.2823 8.54809 38.4945 8.32597 38.7087 8.10483L40.3248 6.44237C40.3866 6.36791 40.4628 6.30678 40.5489 6.2627Z"></path>
<path fill="white" d="M38.7173 9.56092L41.3541 7.12744L41.8221 7.62993C41.5911 7.84613 41.3689 8.05542 41.1438 8.26372L39.3195 9.94198C39.1961 10.0565 39.1902 10.1078 39.05 9.93606C38.9463 9.81266 38.819 9.70505 38.7173 9.56092Z"></path>
<path fill="white" d="M16.0164 40.9722C16.1042 40.9514 16.12 40.8843 16.1516 40.8349C16.4172 40.4164 16.6817 39.9958 16.9473 39.5772C17.046 39.4144 17.0677 39.4163 17.2188 39.521C17.3007 39.5772 17.2899 39.6246 17.2435 39.6957C17.122 39.8793 17.0065 40.0679 16.8881 40.2545C16.6248 40.6671 16.3635 41.0798 16.1042 41.4924C16.0707 41.5438 16.0509 41.6079 15.9877 41.6356C15.9005 41.6163 15.8233 41.5661 15.7703 41.4942C15.7173 41.4223 15.6921 41.3336 15.6995 41.2446C15.6935 40.6622 15.656 40.0797 15.6313 39.4973C15.6313 39.4055 15.6313 39.3117 15.6313 39.1942C15.5208 39.2327 15.4961 39.3107 15.4566 39.3709C15.1901 39.7895 14.9265 40.21 14.658 40.6276C14.5731 40.7599 14.5721 40.751 14.4378 40.676C14.3391 40.6207 14.3253 40.5684 14.3884 40.4717C14.6244 40.1084 14.8534 39.7401 15.0854 39.3749C15.2286 39.1478 15.3687 38.9198 15.5168 38.6957C15.5553 38.6374 15.5652 38.5318 15.6728 38.5505C15.7321 38.5673 15.7857 38.5997 15.8281 38.6443C15.8705 38.689 15.9 38.7442 15.9137 38.8043C15.9295 39.0642 15.9423 39.3239 15.9522 39.5832C15.97 40.0077 15.9848 40.4322 16.0025 40.8577C16.0035 40.8952 16.0114 40.9317 16.0164 40.9722Z"></path>
<path fill="white" d="M26.3593 43.0779C26.3785 43.0501 26.3953 43.0207 26.4096 42.9901C26.4955 42.7453 26.4945 42.7453 26.7749 42.8302C26.7581 42.9535 26.7222 43.0734 26.6683 43.1855C26.5883 43.3652 26.5883 43.3672 26.7374 43.5024C26.8134 43.5715 26.8934 43.6347 26.9704 43.6999C26.9704 43.7157 26.9763 43.7344 26.9704 43.7433C26.8094 43.9664 26.8094 43.9664 26.5972 43.7966L26.5784 43.7818C26.4086 43.6446 26.4116 43.6485 26.2428 43.7818C25.9358 44.0168 25.6001 44.078 25.2467 43.9013C24.7975 43.6742 24.7245 43.152 25.0779 42.7966C25.1766 42.6979 25.3 42.6485 25.3879 42.5557C25.3672 42.4919 25.33 42.4347 25.2803 42.3899C25.1292 42.2082 25.0463 42.0147 25.1628 41.7827C25.2225 41.6702 25.3142 41.5779 25.4262 41.5173C25.5383 41.4567 25.6658 41.4305 25.7926 41.4421C25.9086 41.4456 26.0206 41.4856 26.1124 41.5565C26.2043 41.6275 26.2713 41.7257 26.304 41.837C26.3721 42.073 26.2556 42.2457 26.0986 42.4047C26.0365 42.4678 25.9012 42.4817 25.918 42.5932C25.9288 42.6742 26.0167 42.7324 26.075 42.7907C26.1566 42.8985 26.2522 42.9951 26.3593 43.0779ZM25.5873 43.7344C25.6884 43.7373 25.7889 43.7179 25.8817 43.6776C25.9745 43.6374 26.0573 43.5772 26.1243 43.5015C26.1855 43.4393 26.1934 43.3869 26.1302 43.3208C26.0009 43.1836 25.8765 43.0414 25.7482 42.9032C25.5715 42.7127 25.5705 42.7127 25.38 42.8835C25.3445 42.9155 25.3115 42.9502 25.2812 42.9871C25.2267 43.0501 25.1924 43.128 25.1827 43.2108C25.1731 43.2935 25.1885 43.3772 25.2269 43.4511C25.3118 43.6298 25.4431 43.7394 25.5873 43.7344ZM26.0088 41.9792C26.0127 41.9397 26.0076 41.8999 25.994 41.8626C25.9804 41.8254 25.9585 41.7917 25.93 41.7641C25.9016 41.7365 25.8672 41.7157 25.8296 41.7032C25.792 41.6907 25.752 41.6868 25.7126 41.6919C25.6753 41.6874 25.6373 41.6909 25.6014 41.7023C25.5655 41.7136 25.5325 41.7325 25.5044 41.7576C25.4764 41.7827 25.454 41.8136 25.4389 41.848C25.4237 41.8825 25.4161 41.9198 25.4165 41.9575C25.4165 42.0818 25.608 42.3523 25.7038 42.3523C25.8311 42.3622 26.0088 42.1381 26.0088 41.9792Z"></path>
<path fill="white" d="M20.3049 40.8053C20.5668 40.8213 20.8189 40.9106 21.0325 41.0629C21.1312 41.1288 21.2114 41.219 21.2651 41.3248C21.3189 41.4306 21.3445 41.5485 21.3395 41.6671C21.3395 41.7273 21.3464 41.8083 21.2487 41.7955C21.1509 41.7826 21.0364 41.8083 21.0265 41.678C21.0127 41.5032 20.9703 41.3482 20.8163 41.2525C20.6313 41.1281 20.4095 41.0707 20.1874 41.0896C20.1197 41.0893 20.0536 41.1104 19.9987 41.15C19.9437 41.1895 19.9026 41.2454 19.8814 41.3097C19.834 41.4529 19.8735 41.5644 20.0166 41.679C20.1774 41.7914 20.3471 41.8905 20.5241 41.9751C20.6564 42.047 20.7805 42.133 20.8943 42.2318C20.98 42.3031 21.0455 42.3956 21.0843 42.5002C21.123 42.6048 21.1337 42.7177 21.1151 42.8276C21.0965 42.9376 21.0493 43.0407 20.9784 43.1267C20.9074 43.2127 20.8151 43.2786 20.7106 43.3177C20.5499 43.3854 20.3732 43.4059 20.2012 43.377C19.8834 43.3276 19.5892 43.2259 19.3631 42.9821C19.2869 42.9023 19.2296 42.8064 19.1954 42.7015C19.1612 42.5966 19.1511 42.4853 19.1657 42.3759C19.1736 42.3068 19.1874 42.2446 19.2782 42.2703C19.3522 42.292 19.4756 42.2506 19.4756 42.3838C19.4692 42.4905 19.4918 42.597 19.541 42.6919C19.5902 42.7867 19.6642 42.8666 19.755 42.9228C19.9666 43.065 20.2234 43.1234 20.4757 43.0867C20.5426 43.0808 20.6063 43.0554 20.659 43.0136C20.7116 42.9719 20.7509 42.9156 20.7718 42.8518C20.7964 42.7847 20.8001 42.7117 20.7825 42.6425C20.7649 42.5733 20.7268 42.511 20.6731 42.4638C20.5694 42.3792 20.4573 42.3054 20.3385 42.2436C20.1845 42.1499 20.0206 42.0689 19.8715 41.9672C19.5823 41.7698 19.4766 41.5101 19.5694 41.2416C19.6622 40.9731 19.9248 40.8003 20.3049 40.8053Z"></path>
<path fill="white" d="M31.3339 41.2505C31.5373 41.2219 31.7555 41.1932 31.9736 41.1587C32.0903 41.1395 32.2094 41.1395 32.3261 41.1587C32.9125 41.2574 32.9974 41.8873 32.721 42.213C32.5803 42.3833 32.3993 42.5157 32.1946 42.5985C31.9898 42.6812 31.7676 42.7116 31.5482 42.6869C31.4374 42.6767 31.3305 42.6407 31.2361 42.582C31.1417 42.5232 31.0623 42.4432 31.0042 42.3483C30.9706 42.2969 30.9292 42.2417 30.9983 42.1814C31.0674 42.1212 31.1957 42.0827 31.2441 42.1459C31.2974 42.2245 31.3699 42.288 31.4548 42.3306C31.5396 42.3731 31.634 42.3931 31.7288 42.3888C31.9673 42.3882 32.1987 42.3079 32.3863 42.1607C32.4429 42.1172 32.4894 42.062 32.5225 41.9988C32.5557 41.9469 32.5743 41.887 32.5763 41.8255C32.5784 41.7639 32.5638 41.7029 32.5341 41.649C32.5043 41.595 32.4606 41.5501 32.4075 41.5189C32.3544 41.4876 32.2939 41.4713 32.2323 41.4716C32.0116 41.4709 31.7915 41.4941 31.5758 41.5407C31.4209 41.5697 31.2628 41.577 31.1059 41.5625C31.0009 41.554 30.9002 41.5171 30.8146 41.4557C30.729 41.3944 30.6617 41.3109 30.6199 41.2142C30.5781 41.1176 30.5634 41.0113 30.5774 40.907C30.5913 40.8026 30.6334 40.7039 30.6992 40.6216C30.826 40.4548 30.9945 40.3243 31.1876 40.243C31.3808 40.1618 31.5919 40.1327 31.7999 40.1586C31.8908 40.1658 31.9789 40.1935 32.0575 40.2399C32.136 40.2863 32.2029 40.35 32.253 40.4262C32.2925 40.4844 32.3517 40.5506 32.253 40.6009C32.18 40.6384 32.1059 40.7549 32.0121 40.6315C31.9612 40.5554 31.8883 40.4964 31.8032 40.4624C31.7181 40.4284 31.6247 40.4209 31.5353 40.441C31.3083 40.4844 31.0901 40.5595 30.943 40.7579C30.9047 40.8037 30.8807 40.8597 30.8739 40.919C30.867 40.9783 30.8777 41.0382 30.9045 41.0916C30.9308 41.1448 30.9726 41.189 31.0244 41.2182C31.0761 41.2474 31.1355 41.2604 31.1947 41.2554L31.3339 41.2505Z"></path>
<path fill="white" d="M21.3306 43.6336C21.6178 43.1202 21.8943 42.6266 22.1697 42.133C22.2961 41.9069 22.4244 41.6809 22.5508 41.4538C22.5902 41.3827 22.6218 41.3116 22.7275 41.3551C22.8331 41.3985 22.9634 41.3353 23.0069 41.5081C23.1243 41.981 23.2596 42.4499 23.3869 42.9198C23.4768 43.2535 23.5656 43.5881 23.6574 43.9277C23.5745 43.9801 23.4995 43.9277 23.4254 43.9277C23.3267 43.9356 23.2882 43.8764 23.2675 43.7915C23.225 43.6148 23.1786 43.4401 23.1401 43.2634C23.1354 43.2208 23.1148 43.1816 23.0824 43.1535C23.05 43.1255 23.0082 43.1108 22.9654 43.1123C22.6998 43.0847 22.4353 43.0432 22.1756 42.9998C22.1374 42.9897 22.0968 42.9943 22.0618 43.0125C22.0267 43.0308 21.9997 43.0614 21.9861 43.0985C21.914 43.2377 21.836 43.3749 21.764 43.5151C21.6465 43.7402 21.6652 43.6967 21.4579 43.6612C21.4263 43.6543 21.3957 43.6474 21.3306 43.6336ZM23.0365 42.8507C22.9377 42.4351 22.8509 42.0609 22.762 41.6868C22.5824 42.0451 22.3563 42.366 22.1875 42.7362C22.4682 42.7899 22.7516 42.8281 23.0365 42.8507Z"></path>
<path fill="white" d="M33.4627 41.9991C33.4065 41.6229 33.3541 41.2754 33.3028 40.9279C33.2377 40.4916 33.1725 40.0562 33.1054 39.6199C33.0669 39.3514 33.0698 39.3978 33.3028 39.2615C33.3297 39.2449 33.3614 39.2377 33.3929 39.2411C33.4244 39.2445 33.4538 39.2583 33.4766 39.2803L35.4312 40.77C35.448 40.7828 35.4549 40.8085 35.4687 40.8322C35.4421 40.8529 35.4194 40.8756 35.3937 40.8924C35.1963 41.0207 35.1963 41.0207 35.0117 40.8727C34.8942 40.7739 34.7757 40.688 34.6612 40.5913C34.6345 40.5627 34.5981 40.545 34.5592 40.5415C34.5202 40.5381 34.4813 40.5491 34.4499 40.5725C34.2209 40.7117 33.9889 40.844 33.7589 40.9734C33.7192 40.9901 33.6871 41.0209 33.6688 41.06C33.6506 41.099 33.6475 41.1434 33.6602 41.1846C33.6888 41.3317 33.7086 41.4808 33.7342 41.6269C33.7707 41.8332 33.7717 41.8332 33.5871 41.9388C33.5565 41.9546 33.5279 41.9665 33.4627 41.9991ZM33.4242 39.5883C33.4766 39.9723 33.5151 40.3603 33.596 40.7729L34.3473 40.3366L33.4242 39.5883Z"></path>
<path fill="white" d="M18.616 42.835C18.5828 42.8349 18.5497 42.8313 18.5172 42.8242C18.227 42.6909 18.2843 42.757 18.2843 42.4688C18.2843 42.3355 18.2902 42.2012 18.3001 42.068C18.3073 42.0217 18.2979 41.9744 18.2735 41.9344C18.2491 41.8944 18.2113 41.8644 18.1668 41.8498C17.9338 41.7511 17.7008 41.6523 17.4757 41.5477C17.4323 41.5209 17.3801 41.5121 17.3302 41.5229C17.2804 41.5338 17.2366 41.5635 17.2082 41.6059C17.1095 41.7116 17.0108 41.8123 16.912 41.912C16.7669 42.0591 16.7659 42.0581 16.5715 41.9702C16.5438 41.9574 16.5172 41.9406 16.4658 41.911C16.6633 41.7136 16.8469 41.528 17.0354 41.3414C17.4303 40.9544 17.8252 40.5694 18.2142 40.1804C18.2833 40.1123 18.3346 40.0402 18.4511 40.1074C18.5676 40.1745 18.6762 40.1814 18.6693 40.3611C18.6436 41.0699 18.6377 41.7787 18.6248 42.4865C18.616 42.5951 18.616 42.7047 18.616 42.835ZM18.3445 40.444C18.0839 40.7402 17.7768 40.983 17.5172 41.293C17.7995 41.4046 18.0345 41.5447 18.3208 41.6198C18.3198 41.213 18.3544 40.8339 18.3474 40.444H18.3445Z"></path>
<path fill="white" d="M30.2414 41.3434C30.2098 41.4065 30.1674 41.4134 30.1358 41.4361C30.0282 41.5141 29.9542 41.5033 29.8653 41.3907C29.659 41.1301 29.3717 41.1301 29.0894 41.219C28.9497 41.2535 28.8241 41.3302 28.7296 41.4386C28.6351 41.5471 28.5763 41.682 28.5612 41.8251C28.5097 42.1969 28.6069 42.574 28.8317 42.8745C28.9216 42.9953 29.0462 43.0859 29.1889 43.134C29.3316 43.1822 29.4856 43.1857 29.6304 43.144C29.9759 43.0532 30.1615 42.8479 30.2098 42.5092C30.2177 42.452 30.1862 42.371 30.272 42.3503C30.348 42.3276 30.429 42.3276 30.505 42.3503C30.5623 42.371 30.5465 42.4273 30.5435 42.4737C30.5363 42.6281 30.4916 42.7784 30.4131 42.9115C30.3347 43.0447 30.2249 43.1567 30.0934 43.2378C29.8721 43.3787 29.6142 43.4511 29.352 43.4461C29.2091 43.4486 29.0677 43.4184 28.9383 43.3578C28.809 43.2973 28.6952 43.2079 28.6056 43.0966C28.4633 42.9321 28.3559 42.7403 28.29 42.5329C28.2242 42.3255 28.2012 42.1068 28.2226 41.8903C28.267 41.3572 28.7646 40.9208 29.3391 40.8882C29.5172 40.8709 29.6965 40.9044 29.8562 40.985C30.016 41.0656 30.1496 41.1898 30.2414 41.3434Z"></path>
</g>
<defs>
<clipPath id="clip0_3898_15505">
<rect fill="white" height="44" width="49.483"></rect>
</clipPath>
</defs>
</svg>
