<svg xmlns="http://www.w3.org/2000/svg" fill="none" viewBox="0 0 46 46" height="46" width="46">
<g clip-path="url(#clip0_3257_12810)">
<path fill="white" d="M39.2609 22.3116C39.109 20.4666 38.669 18.691 37.9728 16.9773C37.9564 16.937 37.9353 16.8958 37.9141 16.8545C37.7785 16.9783 37.6377 17.1043 37.5006 17.2235C37.553 17.3516 37.6038 17.4776 37.651 17.6041C38.1835 19.0282 38.534 20.4952 38.6701 22.0104C38.8109 23.5822 38.8008 25.153 38.5695 26.7158C38.1888 29.2872 37.2788 31.66 35.816 33.8099C34.3453 35.9715 32.503 37.7556 30.2731 39.1284C28.2555 40.3699 26.069 41.1492 23.7237 41.4859C22.4388 41.6706 21.1487 41.6939 19.8558 41.6293C17.5 41.5118 15.2627 40.9252 13.1434 39.8929C11.6844 39.1819 10.3741 38.2517 9.17337 37.1643C9.15854 37.1505 9.14425 37.1357 9.12942 37.1193C8.99972 37.2384 8.8356 37.3925 8.70166 37.5201C8.72019 37.5365 8.73819 37.5518 8.75566 37.5672C10.1507 38.8288 11.7029 39.8516 13.4155 40.6303C15.4114 41.5378 17.5037 42.0682 19.6912 42.2196C19.9305 42.236 20.1698 42.2572 20.4085 42.2763H21.5881C21.9497 42.2482 22.3118 42.2223 22.6734 42.1926C24.3331 42.0555 25.9435 41.6923 27.4984 41.0983C31.2647 39.6599 34.2521 37.2416 36.4344 33.8597C38.7029 30.3444 39.604 26.4765 39.2609 22.3132V22.3116Z"></path>
<path fill="white" d="M3.08516 27.6924C3.09628 27.7454 3.10422 27.7861 3.10846 27.8195C3.26358 27.7353 3.46105 27.621 3.63575 27.5098C3.35728 26.2106 3.29058 24.8987 3.30646 23.5794C3.34722 20.1933 4.23716 17.0513 6.13193 14.2374C10.2682 8.09414 16.7773 5.34703 23.9858 6.42809C27.3936 6.93897 30.3673 8.41391 32.918 10.7333C34.4078 12.088 35.6599 13.6996 36.04 14.436C36.1893 14.3502 36.3555 14.2533 36.5143 14.1575C36.4185 14.0082 36.3285 13.8668 36.2337 13.7292C34.1484 10.6877 31.4246 8.42397 28.012 7.00991C25.6005 6.01091 23.0826 5.56779 20.4758 5.64191C19.2163 5.67791 17.9701 5.8362 16.7435 6.1332C13.3298 6.95909 10.3932 8.6262 7.9314 11.1308C6.08587 13.0087 4.70463 15.1819 3.80781 17.6569C2.96128 19.9932 2.59228 22.4036 2.73046 24.8897C2.78287 25.8331 2.89193 26.7676 3.0841 27.6924H3.08516Z"></path>
<path fill="white" d="M5.63579 20.564H5.76497C6.65914 20.564 7.55385 20.5656 8.44803 20.5619C8.55391 20.5619 8.61585 20.591 8.67091 20.6847C9.40838 21.9304 10.1496 23.174 10.8907 24.4176C10.958 24.5303 11.0326 24.6383 11.1279 24.7855C11.1348 24.7045 11.1411 24.6648 11.1411 24.6246C11.1422 23.5388 11.1433 22.4524 11.1396 21.3666C11.1396 21.3068 11.1094 21.231 11.0665 21.1898C10.8701 20.9992 10.6641 20.8176 10.4619 20.6328L10.5032 20.5778H12.7283C12.5409 20.7673 12.38 20.9431 12.2037 21.1024C12.0914 21.2041 12.0554 21.3126 12.056 21.4619C12.0613 23.1179 12.0607 24.7739 12.056 26.4304C12.056 26.5553 12.093 26.64 12.1814 26.7237C12.3943 26.9259 12.5986 27.1366 12.7956 27.3828C12.7506 27.3828 12.7056 27.3828 12.6606 27.3828C11.7611 27.3828 10.8621 27.3812 9.96267 27.3849C9.86262 27.3849 9.80597 27.3553 9.75356 27.2663C9.06744 26.0985 8.37709 24.9338 7.68726 23.768C7.54326 23.5245 7.39926 23.2815 7.22138 23.0438C7.21873 23.094 7.2145 23.1438 7.2145 23.1941C7.2145 24.2603 7.21926 25.3271 7.21185 26.3933C7.21079 26.5495 7.26003 26.6618 7.35903 26.7724C7.52526 26.9582 7.68091 27.153 7.86038 27.3664H5.47803C5.5622 27.2939 5.6215 27.2478 5.67497 27.1954C5.8502 27.0233 6.02756 26.8523 6.19432 26.6723C6.23879 26.6247 6.27162 26.5453 6.27162 26.4807C6.27585 24.7802 6.27638 23.0803 6.27162 21.3798C6.27162 21.311 6.2335 21.2263 6.18479 21.1771C5.99526 20.9865 5.79462 20.8075 5.59767 20.6238L5.63579 20.5645V20.564Z"></path>
<path fill="white" d="M15.6386 20.5788C15.727 20.5725 15.7783 20.5656 15.8291 20.5656C16.807 20.5651 17.7848 20.5677 18.7626 20.5619C18.9003 20.5608 18.9611 20.6132 19.0093 20.735C19.7606 22.6356 20.5144 24.5351 21.272 26.4331C21.3107 26.5299 21.3784 26.6194 21.4478 26.6983C21.515 26.7745 21.6024 26.8338 21.704 26.9201C21.4441 27.0853 21.2233 27.2293 20.9978 27.3654C20.9597 27.3881 20.9025 27.3839 20.8538 27.3839C19.9056 27.3849 18.9574 27.3844 18.0093 27.3839C17.9621 27.3839 17.9156 27.3781 17.8303 27.3722C17.8838 27.3077 17.9134 27.2669 17.9479 27.2314C18.1294 27.0445 18.31 26.8571 18.4953 26.6745C18.5599 26.6104 18.5757 26.5501 18.5397 26.4643C18.4693 26.297 18.4042 26.1271 18.3428 25.9561C18.3131 25.8735 18.2629 25.8444 18.1771 25.8444C17.4698 25.8459 16.762 25.8459 16.0547 25.8417C15.9419 25.8412 15.8858 25.883 15.8577 25.9921C15.8101 26.1774 15.7556 26.3616 15.6952 26.5432C15.6603 26.648 15.6751 26.7285 15.7503 26.8116C15.872 26.9466 15.9837 27.0901 16.0986 27.2314C16.1277 27.2674 16.1526 27.3071 16.1971 27.3707H14.0122C14.0456 27.3235 14.0646 27.2875 14.0921 27.26C14.2229 27.1266 14.3468 26.9847 14.4897 26.8656C14.7041 26.6872 14.8074 26.4585 14.8815 26.1954C15.3257 24.6267 15.7773 23.0597 16.2363 21.4952C16.2876 21.3195 16.2701 21.2025 16.1288 21.0855C15.9933 20.9732 15.8763 20.8382 15.7524 20.7122C15.7201 20.6794 15.6926 20.6424 15.6391 20.5794L15.6386 20.5788ZM17.869 24.776C17.5524 23.9777 17.2453 23.2031 16.9229 22.391C16.8896 22.4641 16.8721 22.4927 16.8631 22.5234C16.6582 23.2254 16.4565 23.9284 16.2479 24.6294C16.2103 24.7554 16.2379 24.7956 16.3702 24.794C16.8117 24.7887 17.2538 24.7924 17.6959 24.7914C17.7424 24.7914 17.789 24.7834 17.8695 24.7755L17.869 24.776Z"></path>
<path fill="white" d="M29.9269 26.7047C29.9873 26.6343 30.0799 26.5734 30.1032 26.4924C30.514 25.0921 30.9158 23.6897 31.3198 22.2878C31.3849 22.0612 31.4463 21.8336 31.5188 21.6091C31.5384 21.5493 31.5818 21.4858 31.6327 21.4487C32.0085 21.1724 32.3881 20.9002 32.7704 20.6324C32.826 20.5932 32.9043 20.5688 32.9726 20.5678C33.3559 20.5614 33.7392 20.5694 34.1225 20.5619C34.2321 20.5598 34.2771 20.6038 34.3141 20.6975C35.0114 22.4609 35.7113 24.2234 36.4106 25.9858C36.4794 26.1594 36.5445 26.3347 36.6203 26.5051C36.6488 26.5702 36.696 26.6306 36.7457 26.6825C36.9363 26.8805 37.1317 27.0742 37.3249 27.2707C37.3503 27.2966 37.372 27.3268 37.4107 27.3734H33.1441C33.1759 27.3321 33.1944 27.3014 33.2193 27.2765C33.4125 27.0806 33.6037 26.8821 33.8033 26.6931C33.8837 26.6168 33.8975 26.5485 33.8541 26.4485C33.7815 26.2822 33.727 26.1075 33.6518 25.9424C33.6317 25.8984 33.5629 25.8492 33.5163 25.8487C32.7889 25.8428 32.0615 25.8455 31.3341 25.8428C31.2504 25.8428 31.2128 25.8709 31.1911 25.9519C31.135 26.1605 31.062 26.3648 31.0127 26.575C30.9979 26.6391 31.0164 26.7312 31.0551 26.7841C31.1795 26.9541 31.3214 27.1113 31.4548 27.2744C31.4744 27.2987 31.486 27.3294 31.5104 27.3728H29.3154C29.379 27.304 29.4293 27.2505 29.479 27.196C29.6299 27.0308 29.7803 26.8651 29.9311 26.6994L29.9274 26.7037L29.9269 26.7047ZM33.1923 24.7835C32.872 23.9729 32.5618 23.1873 32.2515 22.4017L32.2124 22.4054C31.9842 23.1937 31.756 23.9825 31.5241 24.7835H33.1923Z"></path>
<path fill="white" d="M27.0665 21.6243C26.4752 21.3866 25.878 21.2416 25.2639 21.5386C25.1697 21.5841 25.0812 21.6566 25.0119 21.736C24.8165 21.9584 24.8748 22.2803 25.1495 22.4041C25.6858 22.6466 26.2322 22.8679 26.7748 23.0966C26.9628 23.176 27.1523 23.2517 27.371 23.3417C27.0417 23.5482 26.7436 23.7351 26.445 23.9225C25.9585 24.228 25.473 24.534 24.9844 24.8368C24.9388 24.8649 24.8674 24.8966 24.8271 24.8797C24.2861 24.6573 23.7445 24.4339 23.3273 23.9998C22.7815 23.4312 22.6687 22.4841 23.0843 21.8139C23.6227 20.9451 24.4327 20.5173 25.4322 20.4183C26.0464 20.3574 26.6462 20.431 27.2349 20.6147C27.2931 20.6327 27.38 20.6131 27.434 20.5793C27.633 20.4554 27.8231 20.3183 28.0512 20.1631C28.073 20.8699 28.0936 21.5417 28.1137 22.1945C27.7595 22.0013 27.4107 21.8107 27.0618 21.6196L27.066 21.6238L27.0665 21.6243Z"></path>
<path fill="white" d="M25.8573 25.267C26.1543 25.0732 26.4328 24.8911 26.7118 24.7095C27.1279 24.439 27.5461 24.1727 27.9585 23.8963C28.057 23.8302 28.111 23.8423 28.1915 23.9239C29.0719 24.809 28.9438 26.1987 27.9146 26.9055C27.3042 27.3243 26.6212 27.5117 25.8906 27.544C25.2103 27.5742 24.5486 27.4693 23.9048 27.2512C23.8185 27.2221 23.7603 27.2348 23.6904 27.2883C23.4728 27.4535 23.2505 27.6123 23.0011 27.7944C22.9852 27.563 22.9688 27.365 22.9619 27.1665C22.9609 27.139 23.0016 27.1019 23.0318 27.0823C23.3812 26.8542 23.7312 26.626 24.0853 26.4047C24.1272 26.3782 24.1955 26.3793 24.2484 26.3877C24.6407 26.4492 25.0298 26.5418 25.4242 26.572C25.7991 26.6006 26.1585 26.5026 26.4402 26.2263C26.6218 26.0484 26.6271 25.8207 26.4518 25.637C26.3751 25.5566 26.2803 25.4909 26.185 25.4316C26.0897 25.3723 25.9843 25.3295 25.8578 25.2665L25.8573 25.267Z"></path>
<path fill="white" d="M26.2724 20.3534C26.077 20.3761 25.9457 20.3576 25.8091 20.2004C25.0579 19.3316 24.3045 18.4634 23.5194 17.6258C22.4362 16.4696 21.2599 15.4113 19.9787 14.4758C18.9834 13.749 17.9336 13.1152 16.7731 12.6827C16.1246 12.4413 15.4575 12.274 14.7608 12.2878C13.4654 12.3132 12.6194 13.0094 12.3234 14.2651C12.1445 15.0238 12.1747 15.7877 12.2895 16.549C12.532 18.1574 13.0916 19.6662 13.7687 21.1337C14.0625 21.7711 14.3955 22.3905 14.7105 23.0179C14.7232 23.0433 14.7349 23.0692 14.7545 23.1105C14.6555 23.1428 14.5655 23.172 14.4612 23.2058C14.2404 22.8072 14.0175 22.4202 13.809 22.0258C13.0471 20.5858 12.4505 19.0833 12.1101 17.4855C11.9481 16.7242 11.856 15.954 11.8882 15.1747C11.919 14.4303 12.0508 13.7092 12.4558 13.065C12.8782 12.3931 13.5019 12.0458 14.2785 11.9601C15.1108 11.868 15.9012 12.0607 16.671 12.3471C18.5186 13.0358 20.1195 14.1301 21.6157 15.3917C23.0318 16.5866 24.2987 17.9271 25.4708 19.3597C25.6974 19.6365 25.9251 19.9118 26.1517 20.1892C26.1908 20.2369 26.2252 20.2888 26.2718 20.3528L26.2724 20.3534Z"></path>
<path fill="white" d="M19.4366 29.4218C20.0354 29.883 20.6188 30.324 21.1911 30.7787C21.3462 30.9021 21.4902 31.0519 21.5998 31.2166C21.7645 31.4638 21.5797 31.7814 21.28 31.7994C21.0265 31.8148 20.8274 31.6851 20.6357 31.5458C20.2022 31.2298 19.8655 30.819 19.5356 30.4034C19.362 30.1842 19.2 29.9555 19.0142 29.7061C19.1645 29.605 19.3069 29.5092 19.4361 29.4224L19.4366 29.4218Z"></path>
<path fill="white" d="M30.0015 27.4473C30.2297 27.3939 30.2461 27.4013 30.3075 27.5966C30.6326 28.6306 30.8766 29.6815 30.9497 30.7657C30.9963 31.4608 30.9671 32.1496 30.7379 32.8172C30.4256 33.7272 29.7871 34.2355 28.8363 34.3498C28.0808 34.4409 27.3502 34.2963 26.6276 34.092C26.4814 34.0507 26.338 34.0009 26.1987 33.9326C26.23 33.9395 26.2612 33.9448 26.2919 33.9533C26.9028 34.129 27.5228 34.2619 28.1618 34.2503C28.8654 34.2376 29.515 34.0645 30.0168 33.5271C30.4181 33.0977 30.6056 32.5705 30.694 32.0019C30.8396 31.0637 30.7278 30.1394 30.5113 29.2272C30.3742 28.6502 30.1863 28.0847 30.0216 27.514C30.0153 27.4918 30.0089 27.4696 30.002 27.4468L30.0015 27.4473Z"></path>
<path fill="white" d="M16.165 25.8748C16.3191 25.8748 16.4403 25.8705 16.561 25.8779C16.5928 25.88 16.6299 25.9123 16.6521 25.9404C17.3949 26.8727 18.136 27.806 18.8772 28.7394C18.8889 28.7542 18.8968 28.7712 18.9137 28.7992C18.802 28.8749 18.6935 28.9475 18.5723 29.0295C17.7295 28.0162 16.9269 26.9818 16.165 25.8758V25.8748Z"></path>
<path fill="white" d="M27.0631 21.6198C27.3548 21.7713 27.4649 22.0741 27.6365 22.3218C27.8737 22.6644 28.1039 23.0133 28.312 23.3738C28.8949 24.3855 29.4603 25.4073 29.9071 26.4883C29.9336 26.5524 29.9219 26.6318 29.9283 26.7038L29.932 26.6995C29.8897 26.7467 29.8478 26.7938 29.7832 26.8663C29.0214 24.9737 28.0526 23.2298 26.854 21.5849C26.9482 21.6018 27.0081 21.613 27.0679 21.6235L27.0631 21.6188V21.6198Z"></path>
<path fill="white" d="M16.2666 15.3524C16.184 15.2137 16.2745 15.0273 16.0829 14.9447C15.9521 14.8886 15.8373 14.7954 15.7197 14.7213C15.7293 14.7187 15.7743 14.7144 15.8118 14.6954C15.8648 14.6689 15.9135 14.6324 15.9622 14.5985C15.9775 14.5874 15.986 14.5598 16.0014 14.5561C16.2216 14.5021 16.2555 14.3338 16.2571 14.1289C16.3169 14.4868 16.4805 14.7213 16.8707 14.7329C16.7235 14.7997 16.5779 14.8087 16.4445 14.923C16.2936 15.0527 16.3439 15.2179 16.2661 15.3518L16.2666 15.3524Z"></path>
<path fill="white" d="M34.8889 30.2236C34.8836 29.8314 34.6205 29.7048 34.3267 29.5905C34.6311 29.5074 34.9069 29.3919 34.9005 28.9922C34.9688 29.3342 35.1049 29.5921 35.5083 29.5836C35.368 29.6651 35.2155 29.6577 35.0858 29.7784C34.9471 29.9071 34.9794 30.0622 34.8894 30.2236H34.8889Z"></path>
<path fill="white" d="M25.2214 9.25585C25.0731 9.32997 24.9191 9.32097 24.7872 9.45385C24.6581 9.58356 24.6978 9.74185 24.5998 9.91073C24.5919 9.50732 24.4172 9.29238 24.0312 9.26114C24.3849 9.21138 24.6035 9.04514 24.6147 8.66185C24.6978 8.98691 24.8439 9.23997 25.2214 9.25585Z"></path>
<path fill="white" d="M14.9116 37.304C14.5293 37.3395 14.3107 37.5253 14.2916 37.9271C14.253 37.5523 14.0852 37.3241 13.6865 37.3056C14.0455 37.2558 14.2752 37.0907 14.2863 36.6963C14.3546 37.0467 14.5267 37.2781 14.9111 37.3035L14.9116 37.304Z"></path>
<path fill="white" d="M33.2763 34.285C33.1842 34.0992 33.2233 33.9456 33.0904 33.8112C32.9634 33.6825 32.8194 33.6846 32.6553 33.6206C33.0079 33.5544 33.2366 33.3913 33.2609 33.016C33.3107 33.3728 33.47 33.6095 33.8708 33.6211C33.4907 33.6661 33.2784 33.8588 33.2768 34.2855L33.2763 34.285Z"></path>
<path fill="white" d="M24.9912 21.9558C25.042 21.5752 25.7176 21.3306 26.382 21.4963C25.9002 21.6556 25.4502 21.8044 24.9912 21.9558Z"></path>
<path fill="white" d="M35.4243 30.6639C35.5201 30.6723 35.5932 30.7263 35.5974 30.8439C35.6016 30.9625 35.5307 31.0244 35.4206 31.0376C35.3284 31.0488 35.2289 30.9508 35.2252 30.8566C35.2215 30.7592 35.3083 30.6671 35.4237 30.6639H35.4243Z"></path>
<path fill="white" d="M30.2313 29.682C30.3488 29.6916 30.4065 29.7609 30.4113 29.8732C30.4155 29.97 30.3165 30.0622 30.2218 30.059C30.1307 30.0558 30.0254 29.9526 30.037 29.8647C30.0513 29.7567 30.1133 29.6873 30.2308 29.6826L30.2313 29.682Z"></path>
<path fill="white" d="M24.5103 13.2697C24.523 13.1803 24.578 13.1098 24.695 13.1051C24.7961 13.1008 24.8883 13.1882 24.883 13.2872C24.8771 13.4016 24.8099 13.4677 24.6977 13.4767C24.6008 13.4847 24.5108 13.3899 24.5103 13.2697Z"></path>
<path fill="white" d="M22.2113 9.60659C22.2124 9.71406 22.1245 9.80247 22.0229 9.79718C21.908 9.79083 21.8423 9.72412 21.8339 9.61188C21.8265 9.51871 21.9286 9.41812 22.0223 9.425C22.1351 9.43347 22.1971 9.50177 22.2113 9.60606V9.60659Z"></path>
<path fill="white" d="M20.1049 9.36275C20.0933 9.47499 20.0361 9.54593 19.9191 9.5454C19.8032 9.5454 19.7354 9.47605 19.7349 9.36222C19.7349 9.2484 19.8047 9.17904 19.9186 9.17852C20.034 9.17799 20.0938 9.2484 20.1044 9.36275H20.1049Z"></path>
<path fill="white" d="M10.3504 33.6805C10.352 33.7763 10.2594 33.8758 10.1646 33.8705C10.0513 33.8637 9.98512 33.7948 9.97347 33.6842C9.96288 33.5862 10.0571 33.4978 10.1598 33.4999C10.2774 33.5021 10.3372 33.5677 10.3504 33.681V33.6805Z"></path>
<path fill="white" d="M9.69018 32.2703C9.5753 32.2592 9.50383 32.202 9.49377 32.0877C9.48477 31.9908 9.57689 31.8934 9.67536 31.8976C9.78601 31.9024 9.86171 31.9575 9.86489 32.0771C9.86807 32.1957 9.79818 32.2529 9.69071 32.2703H9.69018Z"></path>
<path fill="white" d="M15.8306 33.7815C15.8195 33.8752 15.7496 33.9318 15.6384 33.935C15.5405 33.9371 15.4473 33.8392 15.4584 33.7439C15.4717 33.6322 15.5378 33.5686 15.6538 33.5692C15.7591 33.5692 15.8348 33.6533 15.8306 33.782V33.7815Z"></path>
<path fill="white" d="M14.4791 31.0055C14.5871 31.0193 14.6628 31.0712 14.6639 31.1903C14.6649 31.3062 14.5977 31.3724 14.4844 31.3814C14.3875 31.3888 14.2864 31.2925 14.2933 31.1982C14.3012 31.0892 14.3595 31.0177 14.4786 31.0061L14.4791 31.0055Z"></path>
<path fill="white" d="M30.3905 31.1535C30.3783 31.2604 30.3195 31.3329 30.2041 31.3319C30.0898 31.3308 30.021 31.2604 30.0215 31.1466C30.0215 31.0322 30.0935 30.9639 30.2063 30.9634C30.3206 30.9634 30.3831 31.0317 30.3905 31.1529V31.1535Z"></path>
<path fill="white" d="M33.0414 29.7723C33.0298 29.8872 32.9736 29.9597 32.8561 29.9587C32.7418 29.9576 32.6713 29.8914 32.6719 29.7765C32.6719 29.6632 32.7396 29.5912 32.854 29.5912C32.9678 29.5912 33.0292 29.6617 33.0414 29.7723Z"></path>
<path fill="white" d="M22.8628 25.5984C23.0026 25.7196 23.1143 25.817 23.2366 25.9229C23.1233 25.9928 23.0184 26.0574 22.894 26.1341C22.8834 25.9473 22.8739 25.79 22.8628 25.5984Z"></path>
<path fill="white" d="M14.3258 14.2467C14.3639 14.3049 14.4264 14.3605 14.4338 14.4224C14.4454 14.5188 14.3655 14.5887 14.2766 14.5664C14.2194 14.5521 14.1479 14.4674 14.1437 14.4097C14.14 14.3578 14.2189 14.2996 14.2612 14.244L14.3258 14.2467Z"></path>
<path fill="white" d="M17.7696 11.8217C17.8109 11.8826 17.886 11.9456 17.8829 12.0044C17.8802 12.0568 17.7918 12.1431 17.7399 12.1441C17.6891 12.1452 17.5991 12.0594 17.5954 12.007C17.5912 11.9482 17.6642 11.8842 17.7039 11.8222H17.7696V11.8217Z"></path>
<path fill="white" d="M34.7066 31.2032C34.6087 31.272 34.5557 31.3339 34.4922 31.3482C34.4038 31.3678 34.3424 31.3054 34.3381 31.2138C34.3334 31.1126 34.4006 31.0475 34.4906 31.0581C34.5525 31.0655 34.6076 31.1338 34.7066 31.2037V31.2032Z"></path>
<path fill="white" d="M7.89806 32.2515C7.80064 32.3246 7.73606 32.4082 7.68894 32.3997C7.62753 32.3886 7.57988 32.3034 7.52588 32.2505C7.57829 32.2023 7.627 32.1202 7.68364 32.1149C7.73764 32.1096 7.79906 32.1843 7.89806 32.2515Z"></path>
<path fill="white" d="M14.4617 27.5605C14.4998 27.6188 14.5628 27.6744 14.5702 27.7358C14.5818 27.8327 14.5008 27.8999 14.4124 27.8777C14.3568 27.8634 14.2875 27.7792 14.2838 27.7226C14.2806 27.6701 14.3568 27.6124 14.3981 27.5574L14.4617 27.5605Z"></path>
<path fill="white" d="M12.5584 33.1833C12.4816 33.0838 12.4022 33.0266 12.4043 32.9721C12.4065 32.917 12.4816 32.835 12.5393 32.8196C12.6309 32.7953 12.7077 32.8657 12.696 32.9625C12.6886 33.0245 12.6256 33.0801 12.5584 33.1833Z"></path>
<path fill="white" d="M9.44927 33.3163C9.3741 33.2195 9.29575 33.1623 9.29892 33.1104C9.30263 33.0538 9.37357 32.9706 9.43074 32.9553C9.52286 32.9304 9.59804 33.0056 9.58957 33.0977C9.58427 33.1586 9.5181 33.2142 9.44927 33.3169V33.3163Z"></path>
<path fill="white" d="M32.7425 28.872C32.6457 28.9429 32.5869 29.0181 32.5329 29.0155C32.4784 29.0128 32.3974 28.9398 32.3825 28.8831C32.3582 28.7894 32.4339 28.7163 32.526 28.7264C32.5879 28.7333 32.643 28.8016 32.7431 28.8715L32.7425 28.872Z"></path>
<path fill="white" d="M33.023 32.7809C32.9669 32.8227 32.916 32.8873 32.8541 32.9005C32.7567 32.9217 32.6842 32.8471 32.7006 32.756C32.7112 32.6983 32.789 32.6205 32.8451 32.6131C32.898 32.6062 32.9616 32.6787 33.0209 32.7168L33.0235 32.7814L33.023 32.7809Z"></path>
<path fill="white" d="M28.8033 32.6987C28.8711 32.7982 28.9452 32.8596 28.9404 32.9136C28.9351 32.9703 28.8536 33.0195 28.8054 33.0714C28.7514 33.0185 28.6651 32.9713 28.6535 32.9105C28.6445 32.8628 28.7292 32.7982 28.8033 32.6987Z"></path>
<path fill="white" d="M34.4111 33.5985C34.3132 33.6715 34.2539 33.7504 34.2004 33.7462C34.1443 33.742 34.0617 33.6673 34.0479 33.6096C34.0257 33.518 34.0993 33.4428 34.1946 33.4566C34.2565 33.4656 34.3111 33.5297 34.4111 33.5985Z"></path>
<path fill="white" d="M13.851 34.9353C13.8933 34.9893 13.9595 35.0385 13.9722 35.0989C13.9928 35.1942 13.9219 35.2704 13.8303 35.255C13.7726 35.2455 13.6948 35.1688 13.6853 35.1121C13.6768 35.0613 13.7488 34.9967 13.7848 34.9379L13.8504 34.9348L13.851 34.9353Z"></path>
<path fill="white" d="M15.8862 35.7169C15.8153 35.6168 15.7401 35.557 15.7438 35.503C15.748 35.448 15.8227 35.3664 15.8793 35.3537C15.9693 35.3336 16.0471 35.4056 16.0339 35.4998C16.0249 35.5623 15.9582 35.6158 15.8862 35.7169Z"></path>
<path fill="white" d="M15.0968 15.2263C15.0417 15.266 14.9512 15.3333 14.9004 15.3285C14.8437 15.3232 14.7929 15.2613 14.7797 15.2057C14.7585 15.1162 14.8284 15.0389 14.9237 15.05C14.984 15.0574 15.038 15.1199 15.0952 15.1575L15.0968 15.2263Z"></path>
<path fill="white" d="M18.5715 11.4696C18.5133 11.5056 18.4492 11.5766 18.3973 11.5686C18.3423 11.5607 18.2666 11.4834 18.2565 11.4268C18.2406 11.3346 18.3169 11.2642 18.41 11.2828C18.4704 11.2949 18.5201 11.3627 18.5747 11.4061L18.5715 11.4696Z"></path>
<path fill="white" d="M18.1406 11.1661C18.0834 11.2053 18.0294 11.2694 17.968 11.2773C17.8732 11.29 17.7996 11.2164 17.8219 11.1238C17.8356 11.0671 17.9161 10.9951 17.9722 10.9898C18.0246 10.9851 18.0845 11.0597 18.1411 11.0994C18.1411 11.1217 18.1411 11.1439 18.1406 11.1661Z"></path>
<path fill="white" d="M20.2639 10.8364C20.3222 10.8009 20.3862 10.731 20.4365 10.7395C20.4937 10.749 20.5715 10.8242 20.581 10.8808C20.5969 10.9735 20.517 11.0434 20.4254 11.0275C20.365 11.0169 20.3153 10.9475 20.2607 10.9047C20.2618 10.8819 20.2623 10.8591 20.2634 10.8364H20.2639Z"></path>
<path fill="white" d="M29.7017 36.8865C29.6032 36.9606 29.5392 37.0438 29.4931 37.0348C29.4317 37.0226 29.384 36.9395 29.3306 36.8865C29.3819 36.8378 29.4301 36.7563 29.4862 36.7499C29.5392 36.7441 29.6006 36.8182 29.7017 36.8865Z"></path>
<path fill="white" d="M22.2069 11.7637C22.1492 11.8008 22.0952 11.8606 22.0333 11.8701C21.9332 11.8855 21.8692 11.8013 21.8867 11.7171C21.8983 11.661 21.9835 11.5885 22.0412 11.5832C22.0931 11.579 22.1519 11.6563 22.208 11.6976L22.2069 11.7637Z"></path>
<path fill="white" d="M21.2011 7.3888C21.1461 7.43009 21.0889 7.50686 21.0365 7.50368C20.9809 7.5005 20.8988 7.43009 20.8835 7.37397C20.8586 7.28291 20.9285 7.20615 21.0233 7.21674C21.0847 7.22362 21.1397 7.28715 21.198 7.32527C21.199 7.34644 21.1995 7.36815 21.2006 7.38933L21.2011 7.3888Z"></path>
<path fill="white" d="M23.5371 33.6603C23.5752 33.718 23.6403 33.7736 23.6451 33.834C23.652 33.925 23.5773 34.0007 23.4863 33.9764C23.4302 33.9615 23.3619 33.8779 23.3571 33.8202C23.3529 33.7694 23.4291 33.7117 23.4699 33.6571C23.4926 33.6582 23.5149 33.6593 23.5376 33.6598L23.5371 33.6603Z"></path>
<path fill="white" d="M20.1276 35.121C20.071 35.1586 20.0106 35.2311 19.9593 35.2253C19.901 35.2179 19.8513 35.1406 19.7983 35.0935C19.8513 35.04 19.8973 34.9569 19.9593 34.9431C20.0043 34.933 20.0705 35.0135 20.1271 35.0532C20.1271 35.076 20.1271 35.0988 20.1271 35.121H20.1276Z"></path>
<path fill="white" d="M28.9726 30.8911C28.917 30.9313 28.8577 31.0065 28.8064 31.0017C28.7486 30.9959 28.6645 30.9255 28.6512 30.8693C28.629 30.7772 28.7084 30.7058 28.7989 30.7153C28.8593 30.7211 28.9138 30.7862 28.971 30.8243C28.971 30.8466 28.9721 30.8693 28.9726 30.8916V30.8911Z"></path>
<path fill="white" d="M17.5017 11.0109C17.4615 10.9537 17.3964 10.9002 17.3874 10.8383C17.3736 10.7435 17.4483 10.671 17.5404 10.6932C17.5965 10.7065 17.6701 10.7859 17.6743 10.8409C17.6786 10.8944 17.605 10.9547 17.5658 11.0114H17.5017V11.0109Z"></path>
<path fill="white" d="M31.1619 20.7481C31.082 20.6846 31.0259 20.6401 30.9443 20.575H31.3927C31.2906 20.6512 31.2154 20.7079 31.1619 20.7481Z"></path>
<path fill="white" d="M27.7905 23.1693C27.5629 23.3155 27.3464 23.4579 27.1266 23.595C25.5982 24.5511 24.064 25.4987 22.5425 26.4655C21.6928 27.0055 20.86 27.573 20.0257 28.1379C18.4962 29.1734 16.9604 30.1999 15.4478 31.2603C13.8665 32.3689 12.3508 33.5654 10.9018 34.8429C10.2644 35.4046 9.64653 35.9885 9.02236 36.5645C8.85983 36.7143 8.40718 37.1776 8.26689 37.3073L8.26583 37.3083C8.24571 37.3279 8.22612 37.3465 8.20653 37.3645C7.41771 38.0807 6.63312 38.8018 5.83477 39.5075C5.63465 39.6843 5.68177 39.8897 5.67383 40.101C6.568 39.2185 7.49924 38.3852 8.45853 37.5805C8.46542 37.5741 8.47283 37.5677 8.48024 37.5614C8.64277 37.4243 9.05836 37.041 9.05624 37.0389C9.35324 36.7937 9.63224 36.5613 9.91283 36.3321C11.9696 34.6549 14.0878 33.0587 16.2488 31.5192C18.3702 30.0083 20.5365 28.564 22.7315 27.1622C24.487 26.0409 26.2362 24.91 27.988 23.7829C28.0251 23.7591 28.06 23.7326 28.1077 23.6993C28.0034 23.5251 27.9012 23.3541 27.7895 23.1688L27.7905 23.1693Z"></path>
<path fill="white" d="M2.95732 28.3702C3.35173 28.1775 3.60744 28.0595 3.79961 27.9758C3.81761 27.9626 3.84038 27.951 3.8695 27.9404C4.34279 27.762 4.81291 27.5751 5.28408 27.3914C5.31161 27.3808 5.34656 27.3781 5.36561 27.3591C5.63667 27.0965 5.90879 26.835 6.17138 26.5639C6.20526 26.529 6.18673 26.4432 6.19732 26.3315C5.41856 26.7206 4.66626 27.0965 3.8965 27.4808C3.66991 27.6074 3.42797 27.7625 3.03514 27.9817C3.00338 28.0023 2.9605 28.0245 2.90385 28.0552C2.29291 28.3808 1.6825 28.7075 1.07367 29.0373C0.930732 29.1146 0.795203 29.2057 0.65332 29.2925C0.864556 29.4444 1.03397 29.4116 1.23303 29.2872C1.60308 29.0564 1.99326 28.8562 2.37973 28.653C2.56767 28.5545 2.75985 28.464 2.9552 28.3718L2.95679 28.3708L2.95732 28.3702Z"></path>
<path fill="white" d="M36.6185 14.3179L36.6159 14.3136C36.4443 14.4169 36.2686 14.5175 36.0976 14.6154C34.4543 15.5948 32.7289 16.4175 30.9919 17.2153C29.2512 18.0153 27.4819 18.7475 25.6719 19.4394C25.7629 19.5617 25.8455 19.6745 25.9302 19.7856C26.07 19.9693 26.178 20.2023 26.3601 20.3219C26.5353 20.4368 26.7969 20.4109 27.0044 20.4892C27.2559 20.584 27.4507 20.5353 27.6423 20.3643C27.7403 20.2764 27.8578 20.2102 27.9685 20.1372C28.059 20.0768 28.1156 20.0927 28.1204 20.2123C28.1262 20.3643 28.1321 20.5168 28.1395 20.6687C28.1421 20.7259 28.149 20.783 28.1553 20.8561C29.5006 20.3447 30.8029 19.7872 32.0772 19.162C33.3446 18.5405 34.5649 17.8348 35.7508 17.0666C35.7662 17.0893 35.781 17.1126 35.7963 17.1354C33.3896 19.2515 30.8331 21.1727 28.1453 22.943C28.203 23.0367 28.2559 23.1241 28.3099 23.2104C28.3613 23.293 28.4142 23.375 28.4725 23.4672C31.5182 21.4639 34.5072 19.4023 37.2925 17.0205C37.4656 16.8702 37.6572 16.7034 37.8436 16.5409C37.8912 16.4382 38.0384 16.3582 38.1385 16.2698C39.5986 14.9775 40.975 13.6085 42.1519 12.044C43.0943 10.7915 43.891 9.4621 44.4713 8.00516C44.4983 7.93687 44.52 7.86593 44.5417 7.79605C44.5618 7.73146 44.5788 7.66581 44.5968 7.60069C42.4092 10.4124 39.6033 12.4644 36.618 14.3184L36.6185 14.3179Z"></path>
<path fill="white" d="M25.7749 20.3278C25.2826 20.3564 24.823 20.4088 24.3947 20.5968C23.8092 20.8535 23.3158 21.231 23.0135 21.8054C22.897 22.0267 22.8425 22.2824 22.7742 22.5265C22.7546 22.5958 22.7398 22.6371 22.6667 22.6572C21.8377 22.8833 21.0086 23.112 20.1801 23.3396C20.1663 23.3433 20.151 23.3396 20.1166 23.3396C19.8963 22.7838 19.6734 22.221 19.4458 21.646C19.8005 21.5253 20.1404 21.4131 20.4776 21.294C22.006 20.754 23.5339 20.214 25.0602 19.6687C25.1714 19.629 25.2333 19.6385 25.3043 19.7354C25.4488 19.9318 25.6071 20.1182 25.7749 20.3278Z"></path>
<path fill="white" d="M12.1196 25.3414C12.1196 24.9332 12.117 24.5314 12.1244 24.1295C12.1249 24.0914 12.1847 24.0353 12.2287 24.021C12.8375 23.8151 13.4479 23.6139 14.0588 23.4133C14.5946 23.237 15.1314 23.0633 15.6682 22.8886C15.6894 22.8817 15.7117 22.878 15.7551 22.8674C15.7016 23.0543 15.6534 23.2221 15.6052 23.39C15.5004 23.7526 15.3977 24.1158 15.2876 24.4768C15.2733 24.524 15.2283 24.5859 15.186 24.5965C14.1822 24.8501 13.1768 25.0973 12.172 25.3451C12.163 25.3472 12.153 25.344 12.1207 25.3414H12.1196Z"></path>
<path fill="white" d="M9.02521 26.1869C8.49263 26.3483 7.97751 26.5082 7.46027 26.6596C7.33639 26.6962 7.29298 26.5876 7.2861 26.4992C7.2718 26.3139 7.27604 26.1265 7.28133 25.9402C7.28239 25.9079 7.32051 25.8618 7.3528 25.8486C7.71916 25.694 8.08657 25.542 8.4561 25.397C8.48839 25.3843 8.56198 25.4097 8.58051 25.4399C8.73086 25.6807 8.87221 25.9275 9.02521 26.1874V26.1869Z"></path>
<path fill="white" d="M17.4915 24.0291C17.1342 24.117 16.7901 24.2017 16.4189 24.2928C16.5852 23.7168 16.7445 23.1662 16.9161 22.5717C17.1162 23.0788 17.3004 23.5452 17.4915 24.0291Z"></path>
<path fill="white" d="M8.28146 37.1235C8.38734 37.0203 8.5647 36.8456 8.70182 36.7074C8.47311 36.4813 8.24229 36.259 8.02258 36.026C6.17864 34.072 4.82546 31.8299 4.06311 29.2443C3.95511 28.8774 3.86776 28.5041 3.76452 28.1357C3.76187 28.1261 3.75976 28.1171 3.75817 28.1087C3.59035 28.1881 3.37593 28.2897 3.23193 28.358C4.09223 31.7685 5.77629 34.6824 8.28199 37.124L8.28146 37.1235Z"></path>
</g>
<defs>
<clipPath id="clip0_3257_12810">
<rect transform="translate(0.125488 0.5)" fill="white" height="45" width="45"></rect>
</clipPath>
</defs>
</svg>
