<svg xmlns="http://www.w3.org/2000/svg" fill="none" viewBox="0 0 56 20" height="20" width="56">
<path fill="white" d="M13.093 9.09959H17.1195C17.1195 9.09959 17.2785 8.49335 16.5616 7.58433C15.145 6.11781 13.5542 7.09068 13.5542 7.09068C12.7743 7.50537 11.7723 9.22729 12.3596 11.6983C13.093 14.1699 15.9092 14.6787 17.6596 14.1047C18.8179 13.725 19.4861 12.8881 19.8069 12.3635C19.9104 11.9386 19.9837 11.5143 20.0303 11.092H13.0923V9.09959H13.093Z"></path>
<path fill="white" d="M9.57521 0.0148482C5.3266 0.241416 1.53582 3.1868 0.434433 7.53554C-0.921229 12.888 2.31098 18.3325 7.65412 19.6906C11.4504 20.6552 15.2994 19.3006 17.6914 16.5152C16.64 16.7672 15.4091 16.7836 14.0733 16.323C9.60057 14.7754 8.78087 10.6292 9.89528 7.72778C11.0083 4.82633 14.906 3.47379 17.6112 5.41884C19.9298 7.08446 20.0573 10.0525 20.0442 10.8709C20.4712 6.06902 17.3829 1.52805 12.5689 0.303209C11.5669 0.048491 10.556 -0.0380177 9.57521 0.0148482ZM4.70908 8.83453C5.41844 8.83453 5.99004 9.40713 5.99004 10.1177C5.99004 10.8283 5.41844 11.4009 4.70908 11.4009C3.99973 11.4009 3.41237 10.8283 3.41237 10.1177C3.41237 9.40781 4.00041 8.83453 4.70908 8.83453Z"></path>
<path fill="white" d="M49.8848 4.52097C49.0905 4.55255 48.2783 4.683 47.6115 4.93771C46.214 5.51031 45.5142 6.87315 45.5142 8.30534H48.0433C47.9795 7.57346 48.5278 6.90886 49.0357 6.71799C49.2591 6.62324 49.5661 6.55733 49.8842 6.55733C50.5188 6.52575 51.1685 6.68847 51.6133 7.10247C51.8998 7.38808 51.9807 7.76295 51.8854 8.17695C51.7257 8.84498 50.9965 9.07567 49.8842 9.23564C49.5024 9.29881 49.0631 9.33245 48.5874 9.3963C47.2537 9.55559 45.3498 10.2147 44.9056 12.1543C44.7466 12.9184 44.8679 14.3272 46.042 15.2493C46.8363 15.8542 47.9542 16.1316 48.8116 16.0993C49.1933 16.0993 49.5819 16.067 49.8999 16.0032C50.7882 15.813 51.4749 15.4045 52.1411 14.8648C52.1733 15.0241 52.3344 15.6201 52.4612 15.7787H55.1348C54.7229 14.952 54.7825 13.7526 54.7825 13.0846V9.65308C54.751 8.7626 54.7489 7.86662 54.5584 7.0393C54.3672 6.21199 53.6441 4.84091 51.2926 4.55392C50.8485 4.52234 50.3598 4.52165 49.8842 4.52165L49.8848 4.52097ZM52.0458 10.2456C52.0458 10.5003 52.0767 12.3163 51.9177 12.6671C51.6312 13.4299 50.8368 13.8721 49.8848 13.9661C49.695 13.9977 49.4812 14.0293 49.2605 13.9984C48.6251 13.9984 48.0905 13.6901 47.8678 13.2129C47.6135 12.7358 47.7725 12.249 47.9315 11.962C48.3126 11.294 48.9781 11.1745 49.9006 10.9837C50.185 10.9521 50.4969 10.8862 50.845 10.7914C51.5441 10.6321 51.6963 10.501 52.0458 10.2463V10.2456Z"></path>
<path fill="white" d="M31.3099 6.08163C30.1983 4.84031 28.4828 4.2986 26.7365 4.55332C25.1484 4.80804 24.0053 5.69921 23.2109 6.97142C22.7976 7.70331 22.5125 8.53062 22.385 9.32636C22.1308 11.268 22.6708 14.5127 26.0703 15.7856C27.6576 16.3905 29.6596 16.168 31.1838 15.0537C32.0412 14.4173 32.9 12.9851 32.9623 12.0946H30.1359C30.0399 12.477 29.8186 12.9851 29.31 13.3675C28.1661 14.1941 26.8639 13.6545 26.2923 13.2398C25.4349 12.6034 25.1491 11.5536 25.1176 10.0582C25.1176 9.26319 25.3397 7.99029 26.0072 7.38542C26.7378 6.78056 27.6267 6.62196 28.4841 6.87599C29.406 7.16297 30.1044 8.18047 30.0406 9.10322H26.0387V11.1087H32.9623C33.0261 10.3761 32.9 9.67651 32.7725 9.00848C32.5504 8.02256 31.9466 6.81282 31.3113 6.08163H31.3099Z"></path>
<path fill="white" d="M39.5054 9.04005C38.6473 8.88076 37.6631 8.84918 37.1552 8.27658C36.9325 8.02186 36.9325 7.57628 37.0593 7.32156C37.4088 6.62195 38.2669 6.39881 39.0921 6.46198C39.8227 6.46198 40.4896 6.8444 40.7754 7.48085C40.9028 7.73556 40.935 8.02186 40.9659 8.30816H43.316C43.3482 7.38541 42.9672 6.43039 42.3956 5.82621C41.665 5.06275 39.9495 4.2677 37.8221 4.58558C36.6775 4.74418 35.1533 5.4129 34.644 6.90756C34.1992 8.30816 34.644 9.58038 35.5014 10.2491C36.5823 11.0771 38.6151 11.2989 39.4409 11.4911C40.3936 11.6813 40.8699 11.809 41.0289 12.3493C41.1249 12.7002 41.0927 13.1135 40.8699 13.4005C40.2661 14.1948 39.0277 14.2587 38.0435 13.9717C37.2176 13.7183 36.8681 13.0496 36.7091 12.1578H34.2314C34.2314 12.9858 34.485 13.5597 34.899 14.2271C35.4384 15.0867 36.3917 15.7856 37.7892 16.0087C39.3135 16.2641 40.8699 16.0726 41.7918 15.5638C42.3311 15.2446 42.7444 14.832 43.094 14.3864C43.6018 13.7499 44.0466 12.1578 43.2523 10.7585C42.5539 9.54948 40.9652 9.29545 39.504 9.04073"></path>
</svg>
